ISO-10303-21;
HEADER;
/* Generated by software containing ST-Developer
 * from STEP Tools, Inc. (www.steptools.com) 
 */

FILE_DESCRIPTION(
/* description */ (''),
/* implementation_level */ '2;1');

FILE_NAME(
/* name */ 'Legion RT-C08-M2-BJ v1.step',
/* time_stamp */ '2026-09-19T11:52:45+02:00',
/* author */ (''),
/* organization */ (''),
/* preprocessor_version */ 'ST-DEVELOPER v20.1',
/* originating_system */ 'Autodesk Translation Framework v15.8.0.0',
/* authorisation */ '');

FILE_SCHEMA (('AUTOMOTIVE_DESIGN { 1 0 10303 214 3 1 1 }'));
ENDSEC;

DATA;
#10=MECHANICAL_DESIGN_GEOMETRIC_PRESENTATION_REPRESENTATION('',(#13),#1731);
#11=SHAPE_REPRESENTATION_RELATIONSHIP('SRR','None',#1738,#12);
#12=ADVANCED_BREP_SHAPE_REPRESENTATION('',(#14),#1730);
#13=STYLED_ITEM('',(#1747),#14);
#14=MANIFOLD_SOLID_BREP('Body1',#1039);
#15=FACE_BOUND('',#360,.T.);
#16=FACE_BOUND('',#365,.T.);
#17=FACE_BOUND('',#381,.T.);
#18=FACE_BOUND('',#382,.T.);
#19=FACE_BOUND('',#384,.T.);
#20=FACE_BOUND('',#386,.T.);
#21=FACE_BOUND('',#410,.T.);
#22=FACE_BOUND('',#411,.T.);
#23=FACE_BOUND('',#412,.T.);
#24=FACE_BOUND('',#413,.T.);
#25=CYLINDRICAL_SURFACE('',#1069,1.);
#26=CYLINDRICAL_SURFACE('',#1077,1.);
#27=CYLINDRICAL_SURFACE('',#1079,1.);
#28=CYLINDRICAL_SURFACE('',#1087,1.);
#29=CYLINDRICAL_SURFACE('',#1092,0.750000000000001);
#30=CYLINDRICAL_SURFACE('',#1095,0.75);
#31=CYLINDRICAL_SURFACE('',#1100,0.75);
#32=CYLINDRICAL_SURFACE('',#1103,0.75);
#33=CYLINDRICAL_SURFACE('',#1110,1.7);
#34=CYLINDRICAL_SURFACE('',#1113,1.7);
#35=CYLINDRICAL_SURFACE('',#1116,1.7);
#36=CYLINDRICAL_SURFACE('',#1119,1.7);
#37=LINE('',#1430,#145);
#38=LINE('',#1445,#146);
#39=LINE('',#1460,#147);
#40=LINE('',#1475,#148);
#41=LINE('',#1481,#149);
#42=LINE('',#1484,#150);
#43=LINE('',#1487,#151);
#44=LINE('',#1489,#152);
#45=LINE('',#1490,#153);
#46=LINE('',#1493,#154);
#47=LINE('',#1495,#155);
#48=LINE('',#1497,#156);
#49=LINE('',#1501,#157);
#50=LINE('',#1505,#158);
#51=LINE('',#1510,#159);
#52=LINE('',#1516,#160);
#53=LINE('',#1519,#161);
#54=LINE('',#1522,#162);
#55=LINE('',#1524,#163);
#56=LINE('',#1525,#164);
#57=LINE('',#1528,#165);
#58=LINE('',#1530,#166);
#59=LINE('',#1532,#167);
#60=LINE('',#1536,#168);
#61=LINE('',#1540,#169);
#62=LINE('',#1545,#170);
#63=LINE('',#1548,#171);
#64=LINE('',#1549,#172);
#65=LINE('',#1552,#173);
#66=LINE('',#1553,#174);
#67=LINE('',#1557,#175);
#68=LINE('',#1558,#176);
#69=LINE('',#1559,#177);
#70=LINE('',#1563,#178);
#71=LINE('',#1566,#179);
#72=LINE('',#1567,#180);
#73=LINE('',#1572,#181);
#74=LINE('',#1573,#182);
#75=LINE('',#1576,#183);
#76=LINE('',#1577,#184);
#77=LINE('',#1581,#185);
#78=LINE('',#1582,#186);
#79=LINE('',#1583,#187);
#80=LINE('',#1587,#188);
#81=LINE('',#1590,#189);
#82=LINE('',#1591,#190);
#83=LINE('',#1597,#191);
#84=LINE('',#1599,#192);
#85=LINE('',#1601,#193);
#86=LINE('',#1602,#194);
#87=LINE('',#1606,#195);
#88=LINE('',#1607,#196);
#89=LINE('',#1608,#197);
#90=LINE('',#1609,#198);
#91=LINE('',#1610,#199);
#92=LINE('',#1615,#200);
#93=LINE('',#1617,#201);
#94=LINE('',#1618,#202);
#95=LINE('',#1623,#203);
#96=LINE('',#1625,#204);
#97=LINE('',#1626,#205);
#98=LINE('',#1631,#206);
#99=LINE('',#1633,#207);
#100=LINE('',#1634,#208);
#101=LINE('',#1639,#209);
#102=LINE('',#1641,#210);
#103=LINE('',#1642,#211);
#104=LINE('',#1647,#212);
#105=LINE('',#1649,#213);
#106=LINE('',#1650,#214);
#107=LINE('',#1653,#215);
#108=LINE('',#1655,#216);
#109=LINE('',#1656,#217);
#110=LINE('',#1659,#218);
#111=LINE('',#1661,#219);
#112=LINE('',#1662,#220);
#113=LINE('',#1665,#221);
#114=LINE('',#1667,#222);
#115=LINE('',#1668,#223);
#116=LINE('',#1671,#224);
#117=LINE('',#1673,#225);
#118=LINE('',#1674,#226);
#119=LINE('',#1677,#227);
#120=LINE('',#1679,#228);
#121=LINE('',#1680,#229);
#122=LINE('',#1683,#230);
#123=LINE('',#1685,#231);
#124=LINE('',#1686,#232);
#125=LINE('',#1689,#233);
#126=LINE('',#1691,#234);
#127=LINE('',#1692,#235);
#128=LINE('',#1695,#236);
#129=LINE('',#1697,#237);
#130=LINE('',#1698,#238);
#131=LINE('',#1701,#239);
#132=LINE('',#1703,#240);
#133=LINE('',#1704,#241);
#134=LINE('',#1707,#242);
#135=LINE('',#1709,#243);
#136=LINE('',#1710,#244);
#137=LINE('',#1713,#245);
#138=LINE('',#1715,#246);
#139=LINE('',#1716,#247);
#140=LINE('',#1719,#248);
#141=LINE('',#1721,#249);
#142=LINE('',#1722,#250);
#143=LINE('',#1724,#251);
#144=LINE('',#1725,#252);
#145=VECTOR('',#1147,10.);
#146=VECTOR('',#1156,10.);
#147=VECTOR('',#1165,10.);
#148=VECTOR('',#1174,10.);
#149=VECTOR('',#1179,10.);
#150=VECTOR('',#1182,10.);
#151=VECTOR('',#1185,10.);
#152=VECTOR('',#1186,10.);
#153=VECTOR('',#1187,10.);
#154=VECTOR('',#1190,10.);
#155=VECTOR('',#1191,10.);
#156=VECTOR('',#1192,10.);
#157=VECTOR('',#1195,10.);
#158=VECTOR('',#1198,10.);
#159=VECTOR('',#1205,10.);
#160=VECTOR('',#1210,10.);
#161=VECTOR('',#1213,10.);
#162=VECTOR('',#1216,10.);
#163=VECTOR('',#1217,10.);
#164=VECTOR('',#1218,10.);
#165=VECTOR('',#1221,10.);
#166=VECTOR('',#1222,10.);
#167=VECTOR('',#1223,10.);
#168=VECTOR('',#1226,10.);
#169=VECTOR('',#1229,10.);
#170=VECTOR('',#1236,10.);
#171=VECTOR('',#1239,10.);
#172=VECTOR('',#1240,10.);
#173=VECTOR('',#1243,10.);
#174=VECTOR('',#1244,10.);
#175=VECTOR('',#1247,10.);
#176=VECTOR('',#1248,10.);
#177=VECTOR('',#1249,10.);
#178=VECTOR('',#1254,10.);
#179=VECTOR('',#1257,10.);
#180=VECTOR('',#1258,10.);
#181=VECTOR('',#1265,10.);
#182=VECTOR('',#1266,10.);
#183=VECTOR('',#1269,10.);
#184=VECTOR('',#1270,10.);
#185=VECTOR('',#1273,10.);
#186=VECTOR('',#1274,10.);
#187=VECTOR('',#1275,10.);
#188=VECTOR('',#1280,10.);
#189=VECTOR('',#1283,10.);
#190=VECTOR('',#1284,10.);
#191=VECTOR('',#1291,10.);
#192=VECTOR('',#1292,10.);
#193=VECTOR('',#1293,10.);
#194=VECTOR('',#1294,10.);
#195=VECTOR('',#1297,10.);
#196=VECTOR('',#1298,10.);
#197=VECTOR('',#1299,10.);
#198=VECTOR('',#1300,10.);
#199=VECTOR('',#1301,10.);
#200=VECTOR('',#1308,10.);
#201=VECTOR('',#1309,10.);
#202=VECTOR('',#1310,10.);
#203=VECTOR('',#1317,10.);
#204=VECTOR('',#1318,10.);
#205=VECTOR('',#1319,10.);
#206=VECTOR('',#1326,10.);
#207=VECTOR('',#1327,10.);
#208=VECTOR('',#1328,10.);
#209=VECTOR('',#1335,10.);
#210=VECTOR('',#1336,10.);
#211=VECTOR('',#1337,10.);
#212=VECTOR('',#1344,10.);
#213=VECTOR('',#1345,10.);
#214=VECTOR('',#1346,10.);
#215=VECTOR('',#1349,10.);
#216=VECTOR('',#1350,10.);
#217=VECTOR('',#1351,10.);
#218=VECTOR('',#1354,10.);
#219=VECTOR('',#1355,10.);
#220=VECTOR('',#1356,10.);
#221=VECTOR('',#1359,10.);
#222=VECTOR('',#1360,10.);
#223=VECTOR('',#1361,10.);
#224=VECTOR('',#1364,10.);
#225=VECTOR('',#1365,10.);
#226=VECTOR('',#1366,10.);
#227=VECTOR('',#1369,10.);
#228=VECTOR('',#1370,10.);
#229=VECTOR('',#1371,10.);
#230=VECTOR('',#1374,10.);
#231=VECTOR('',#1375,10.);
#232=VECTOR('',#1376,10.);
#233=VECTOR('',#1379,10.);
#234=VECTOR('',#1380,10.);
#235=VECTOR('',#1381,10.);
#236=VECTOR('',#1384,10.);
#237=VECTOR('',#1385,10.);
#238=VECTOR('',#1386,10.);
#239=VECTOR('',#1389,10.);
#240=VECTOR('',#1390,10.);
#241=VECTOR('',#1391,10.);
#242=VECTOR('',#1394,10.);
#243=VECTOR('',#1395,10.);
#244=VECTOR('',#1396,10.);
#245=VECTOR('',#1399,10.);
#246=VECTOR('',#1400,10.);
#247=VECTOR('',#1401,10.);
#248=VECTOR('',#1404,10.);
#249=VECTOR('',#1405,10.);
#250=VECTOR('',#1406,10.);
#251=VECTOR('',#1409,10.);
#252=VECTOR('',#1410,10.);
#253=PLANE('',#1056);
#254=PLANE('',#1060);
#255=PLANE('',#1064);
#256=PLANE('',#1068);
#257=PLANE('',#1072);
#258=PLANE('',#1073);
#259=PLANE('',#1082);
#260=PLANE('',#1083);
#261=PLANE('',#1089);
#262=PLANE('',#1090);
#263=PLANE('',#1091);
#264=PLANE('',#1094);
#265=PLANE('',#1097);
#266=PLANE('',#1098);
#267=PLANE('',#1099);
#268=PLANE('',#1102);
#269=PLANE('',#1105);
#270=PLANE('',#1106);
#271=PLANE('',#1107);
#272=PLANE('',#1108);
#273=PLANE('',#1109);
#274=PLANE('',#1112);
#275=PLANE('',#1115);
#276=PLANE('',#1118);
#277=PLANE('',#1121);
#278=PLANE('',#1122);
#279=PLANE('',#1123);
#280=PLANE('',#1124);
#281=PLANE('',#1125);
#282=PLANE('',#1126);
#283=PLANE('',#1127);
#284=PLANE('',#1128);
#285=PLANE('',#1129);
#286=PLANE('',#1130);
#287=PLANE('',#1131);
#288=PLANE('',#1132);
#289=PLANE('',#1133);
#290=PLANE('',#1134);
#291=PLANE('',#1135);
#292=PLANE('',#1136);
#293=FACE_OUTER_BOUND('',#349,.T.);
#294=FACE_OUTER_BOUND('',#350,.T.);
#295=FACE_OUTER_BOUND('',#351,.T.);
#296=FACE_OUTER_BOUND('',#352,.T.);
#297=FACE_OUTER_BOUND('',#353,.T.);
#298=FACE_OUTER_BOUND('',#354,.T.);
#299=FACE_OUTER_BOUND('',#355,.T.);
#300=FACE_OUTER_BOUND('',#356,.T.);
#301=FACE_OUTER_BOUND('',#357,.T.);
#302=FACE_OUTER_BOUND('',#358,.T.);
#303=FACE_OUTER_BOUND('',#359,.T.);
#304=FACE_OUTER_BOUND('',#361,.T.);
#305=FACE_OUTER_BOUND('',#362,.T.);
#306=FACE_OUTER_BOUND('',#363,.T.);
#307=FACE_OUTER_BOUND('',#364,.T.);
#308=FACE_OUTER_BOUND('',#366,.T.);
#309=FACE_OUTER_BOUND('',#367,.T.);
#310=FACE_OUTER_BOUND('',#368,.T.);
#311=FACE_OUTER_BOUND('',#369,.T.);
#312=FACE_OUTER_BOUND('',#370,.T.);
#313=FACE_OUTER_BOUND('',#371,.T.);
#314=FACE_OUTER_BOUND('',#372,.T.);
#315=FACE_OUTER_BOUND('',#373,.T.);
#316=FACE_OUTER_BOUND('',#374,.T.);
#317=FACE_OUTER_BOUND('',#375,.T.);
#318=FACE_OUTER_BOUND('',#376,.T.);
#319=FACE_OUTER_BOUND('',#377,.T.);
#320=FACE_OUTER_BOUND('',#378,.T.);
#321=FACE_OUTER_BOUND('',#379,.T.);
#322=FACE_OUTER_BOUND('',#380,.T.);
#323=FACE_OUTER_BOUND('',#383,.T.);
#324=FACE_OUTER_BOUND('',#385,.T.);
#325=FACE_OUTER_BOUND('',#387,.T.);
#326=FACE_OUTER_BOUND('',#388,.T.);
#327=FACE_OUTER_BOUND('',#389,.T.);
#328=FACE_OUTER_BOUND('',#390,.T.);
#329=FACE_OUTER_BOUND('',#391,.T.);
#330=FACE_OUTER_BOUND('',#392,.T.);
#331=FACE_OUTER_BOUND('',#393,.T.);
#332=FACE_OUTER_BOUND('',#394,.T.);
#333=FACE_OUTER_BOUND('',#395,.T.);
#334=FACE_OUTER_BOUND('',#396,.T.);
#335=FACE_OUTER_BOUND('',#397,.T.);
#336=FACE_OUTER_BOUND('',#398,.T.);
#337=FACE_OUTER_BOUND('',#399,.T.);
#338=FACE_OUTER_BOUND('',#400,.T.);
#339=FACE_OUTER_BOUND('',#401,.T.);
#340=FACE_OUTER_BOUND('',#402,.T.);
#341=FACE_OUTER_BOUND('',#403,.T.);
#342=FACE_OUTER_BOUND('',#404,.T.);
#343=FACE_OUTER_BOUND('',#405,.T.);
#344=FACE_OUTER_BOUND('',#406,.T.);
#345=FACE_OUTER_BOUND('',#407,.T.);
#346=FACE_OUTER_BOUND('',#408,.T.);
#347=FACE_OUTER_BOUND('',#409,.T.);
#348=FACE_OUTER_BOUND('',#414,.T.);
#349=EDGE_LOOP('',(#691,#692,#693,#694));
#350=EDGE_LOOP('',(#695,#696));
#351=EDGE_LOOP('',(#697,#698,#699,#700));
#352=EDGE_LOOP('',(#701,#702));
#353=EDGE_LOOP('',(#703,#704,#705,#706));
#354=EDGE_LOOP('',(#707,#708));
#355=EDGE_LOOP('',(#709,#710,#711,#712));
#356=EDGE_LOOP('',(#713,#714));
#357=EDGE_LOOP('',(#715,#716,#717,#718));
#358=EDGE_LOOP('',(#719,#720,#721,#722));
#359=EDGE_LOOP('',(#723,#724,#725,#726,#727,#728));
#360=EDGE_LOOP('',(#729,#730,#731,#732));
#361=EDGE_LOOP('',(#733,#734,#735,#736));
#362=EDGE_LOOP('',(#737,#738,#739,#740));
#363=EDGE_LOOP('',(#741,#742,#743,#744));
#364=EDGE_LOOP('',(#745,#746,#747,#748,#749,#750));
#365=EDGE_LOOP('',(#751,#752,#753,#754));
#366=EDGE_LOOP('',(#755,#756,#757,#758));
#367=EDGE_LOOP('',(#759,#760,#761,#762));
#368=EDGE_LOOP('',(#763,#764,#765,#766));
#369=EDGE_LOOP('',(#767,#768,#769,#770));
#370=EDGE_LOOP('',(#771,#772,#773,#774));
#371=EDGE_LOOP('',(#775,#776,#777,#778));
#372=EDGE_LOOP('',(#779,#780,#781,#782));
#373=EDGE_LOOP('',(#783,#784,#785,#786));
#374=EDGE_LOOP('',(#787,#788,#789,#790));
#375=EDGE_LOOP('',(#791,#792,#793,#794));
#376=EDGE_LOOP('',(#795,#796,#797,#798));
#377=EDGE_LOOP('',(#799,#800,#801,#802));
#378=EDGE_LOOP('',(#803,#804,#805,#806));
#379=EDGE_LOOP('',(#807,#808,#809,#810));
#380=EDGE_LOOP('',(#811,#812,#813,#814));
#381=EDGE_LOOP('',(#815,#816,#817,#818));
#382=EDGE_LOOP('',(#819,#820,#821,#822));
#383=EDGE_LOOP('',(#823,#824,#825,#826,#827,#828));
#384=EDGE_LOOP('',(#829,#830,#831,#832));
#385=EDGE_LOOP('',(#833,#834,#835,#836,#837,#838));
#386=EDGE_LOOP('',(#839,#840,#841,#842));
#387=EDGE_LOOP('',(#843,#844,#845,#846,#847,#848));
#388=EDGE_LOOP('',(#849,#850,#851,#852));
#389=EDGE_LOOP('',(#853,#854,#855,#856,#857,#858));
#390=EDGE_LOOP('',(#859,#860,#861,#862));
#391=EDGE_LOOP('',(#863,#864,#865,#866,#867,#868));
#392=EDGE_LOOP('',(#869,#870,#871,#872));
#393=EDGE_LOOP('',(#873,#874,#875,#876,#877,#878));
#394=EDGE_LOOP('',(#879,#880,#881,#882));
#395=EDGE_LOOP('',(#883,#884,#885,#886));
#396=EDGE_LOOP('',(#887,#888,#889,#890));
#397=EDGE_LOOP('',(#891,#892,#893,#894));
#398=EDGE_LOOP('',(#895,#896,#897,#898));
#399=EDGE_LOOP('',(#899,#900,#901,#902));
#400=EDGE_LOOP('',(#903,#904,#905,#906));
#401=EDGE_LOOP('',(#907,#908,#909,#910));
#402=EDGE_LOOP('',(#911,#912,#913,#914));
#403=EDGE_LOOP('',(#915,#916,#917,#918));
#404=EDGE_LOOP('',(#919,#920,#921,#922));
#405=EDGE_LOOP('',(#923,#924,#925,#926));
#406=EDGE_LOOP('',(#927,#928,#929,#930));
#407=EDGE_LOOP('',(#931,#932,#933,#934));
#408=EDGE_LOOP('',(#935,#936,#937,#938));
#409=EDGE_LOOP('',(#939,#940,#941,#942,#943,#944,#945,#946,#947,#948,#949,
#950,#951,#952,#953,#954));
#410=EDGE_LOOP('',(#955,#956));
#411=EDGE_LOOP('',(#957,#958));
#412=EDGE_LOOP('',(#959,#960));
#413=EDGE_LOOP('',(#961,#962));
#414=EDGE_LOOP('',(#963,#964,#965,#966,#967,#968,#969,#970,#971,#972,#973,
#974,#975,#976,#977,#978));
#415=CIRCLE('',#1054,1.2);
#416=CIRCLE('',#1055,1.7);
#417=CIRCLE('',#1058,1.2);
#418=CIRCLE('',#1059,1.7);
#419=CIRCLE('',#1062,1.2);
#420=CIRCLE('',#1063,1.7);
#421=CIRCLE('',#1066,1.2);
#422=CIRCLE('',#1067,1.7);
#423=CIRCLE('',#1070,1.);
#424=CIRCLE('',#1071,1.);
#425=CIRCLE('',#1074,1.);
#426=CIRCLE('',#1075,0.75);
#427=CIRCLE('',#1076,0.75);
#428=CIRCLE('',#1078,1.);
#429=CIRCLE('',#1080,1.);
#430=CIRCLE('',#1081,1.);
#431=CIRCLE('',#1084,1.);
#432=CIRCLE('',#1085,0.750000000000001);
#433=CIRCLE('',#1086,0.75);
#434=CIRCLE('',#1088,1.);
#435=CIRCLE('',#1093,0.750000000000001);
#436=CIRCLE('',#1096,0.75);
#437=CIRCLE('',#1101,0.75);
#438=CIRCLE('',#1104,0.75);
#439=CIRCLE('',#1111,1.7);
#440=CIRCLE('',#1114,1.7);
#441=CIRCLE('',#1117,1.7);
#442=CIRCLE('',#1120,1.7);
#443=(
BOUNDED_CURVE()
B_SPLINE_CURVE(2,(#1419,#1420,#1421),.UNSPECIFIED.,.F.,.F.)
B_SPLINE_CURVE_WITH_KNOTS((3,3),(0.308914501642901,0.429921053233184),
 .UNSPECIFIED.)
CURVE()
GEOMETRIC_REPRESENTATION_ITEM()
RATIONAL_B_SPLINE_CURVE((1.08789854432306,1.06116487661159,1.))
REPRESENTATION_ITEM('')
);
#444=(
BOUNDED_CURVE()
B_SPLINE_CURVE(2,(#1425,#1426,#1427),.UNSPECIFIED.,.F.,.F.)
B_SPLINE_CURVE_WITH_KNOTS((3,3),(0.,0.121006551592703),.UNSPECIFIED.)
CURVE()
GEOMETRIC_REPRESENTATION_ITEM()
RATIONAL_B_SPLINE_CURVE((1.,1.06116487661281,1.08789854432413))
REPRESENTATION_ITEM('')
);
#445=(
BOUNDED_CURVE()
B_SPLINE_CURVE(2,(#1434,#1435,#1436),.UNSPECIFIED.,.F.,.F.)
B_SPLINE_CURVE_WITH_KNOTS((3,3),(0.308914501642913,0.429921053233184),
 .UNSPECIFIED.)
CURVE()
GEOMETRIC_REPRESENTATION_ITEM()
RATIONAL_B_SPLINE_CURVE((1.08789854432307,1.06116487661159,1.))
REPRESENTATION_ITEM('')
);
#446=(
BOUNDED_CURVE()
B_SPLINE_CURVE(2,(#1440,#1441,#1442),.UNSPECIFIED.,.F.,.F.)
B_SPLINE_CURVE_WITH_KNOTS((3,3),(0.,0.121006551592694),.UNSPECIFIED.)
CURVE()
GEOMETRIC_REPRESENTATION_ITEM()
RATIONAL_B_SPLINE_CURVE((1.,1.06116487661279,1.08789854432411))
REPRESENTATION_ITEM('')
);
#447=(
BOUNDED_CURVE()
B_SPLINE_CURVE(2,(#1449,#1450,#1451),.UNSPECIFIED.,.F.,.F.)
B_SPLINE_CURVE_WITH_KNOTS((3,3),(0.308914501642902,0.429921053233184),
 .UNSPECIFIED.)
CURVE()
GEOMETRIC_REPRESENTATION_ITEM()
RATIONAL_B_SPLINE_CURVE((1.08789854432306,1.06116487661158,1.))
REPRESENTATION_ITEM('')
);
#448=(
BOUNDED_CURVE()
B_SPLINE_CURVE(2,(#1455,#1456,#1457),.UNSPECIFIED.,.F.,.F.)
B_SPLINE_CURVE_WITH_KNOTS((3,3),(0.,0.121006551592704),.UNSPECIFIED.)
CURVE()
GEOMETRIC_REPRESENTATION_ITEM()
RATIONAL_B_SPLINE_CURVE((1.,1.06116487661281,1.08789854432413))
REPRESENTATION_ITEM('')
);
#449=(
BOUNDED_CURVE()
B_SPLINE_CURVE(2,(#1464,#1465,#1466),.UNSPECIFIED.,.F.,.F.)
B_SPLINE_CURVE_WITH_KNOTS((3,3),(0.30891450164291,0.429921053233184),
 .UNSPECIFIED.)
CURVE()
GEOMETRIC_REPRESENTATION_ITEM()
RATIONAL_B_SPLINE_CURVE((1.08789854432304,1.06116487661157,1.))
REPRESENTATION_ITEM('')
);
#450=(
BOUNDED_CURVE()
B_SPLINE_CURVE(2,(#1470,#1471,#1472),.UNSPECIFIED.,.F.,.F.)
B_SPLINE_CURVE_WITH_KNOTS((3,3),(0.,0.121006551592692),.UNSPECIFIED.)
CURVE()
GEOMETRIC_REPRESENTATION_ITEM()
RATIONAL_B_SPLINE_CURVE((1.,1.06116487661281,1.08789854432414))
REPRESENTATION_ITEM('')
);
#451=VERTEX_POINT('',#1417);
#452=VERTEX_POINT('',#1418);
#453=VERTEX_POINT('',#1422);
#454=VERTEX_POINT('',#1424);
#455=VERTEX_POINT('',#1432);
#456=VERTEX_POINT('',#1433);
#457=VERTEX_POINT('',#1437);
#458=VERTEX_POINT('',#1439);
#459=VERTEX_POINT('',#1447);
#460=VERTEX_POINT('',#1448);
#461=VERTEX_POINT('',#1452);
#462=VERTEX_POINT('',#1454);
#463=VERTEX_POINT('',#1462);
#464=VERTEX_POINT('',#1463);
#465=VERTEX_POINT('',#1467);
#466=VERTEX_POINT('',#1469);
#467=VERTEX_POINT('',#1477);
#468=VERTEX_POINT('',#1478);
#469=VERTEX_POINT('',#1480);
#470=VERTEX_POINT('',#1482);
#471=VERTEX_POINT('',#1486);
#472=VERTEX_POINT('',#1488);
#473=VERTEX_POINT('',#1492);
#474=VERTEX_POINT('',#1494);
#475=VERTEX_POINT('',#1496);
#476=VERTEX_POINT('',#1499);
#477=VERTEX_POINT('',#1500);
#478=VERTEX_POINT('',#1502);
#479=VERTEX_POINT('',#1504);
#480=VERTEX_POINT('',#1508);
#481=VERTEX_POINT('',#1512);
#482=VERTEX_POINT('',#1513);
#483=VERTEX_POINT('',#1515);
#484=VERTEX_POINT('',#1517);
#485=VERTEX_POINT('',#1521);
#486=VERTEX_POINT('',#1523);
#487=VERTEX_POINT('',#1527);
#488=VERTEX_POINT('',#1529);
#489=VERTEX_POINT('',#1531);
#490=VERTEX_POINT('',#1534);
#491=VERTEX_POINT('',#1535);
#492=VERTEX_POINT('',#1537);
#493=VERTEX_POINT('',#1539);
#494=VERTEX_POINT('',#1543);
#495=VERTEX_POINT('',#1547);
#496=VERTEX_POINT('',#1551);
#497=VERTEX_POINT('',#1555);
#498=VERTEX_POINT('',#1556);
#499=VERTEX_POINT('',#1561);
#500=VERTEX_POINT('',#1565);
#501=VERTEX_POINT('',#1571);
#502=VERTEX_POINT('',#1575);
#503=VERTEX_POINT('',#1579);
#504=VERTEX_POINT('',#1580);
#505=VERTEX_POINT('',#1585);
#506=VERTEX_POINT('',#1589);
#507=VERTEX_POINT('',#1595);
#508=VERTEX_POINT('',#1596);
#509=VERTEX_POINT('',#1598);
#510=VERTEX_POINT('',#1600);
#511=VERTEX_POINT('',#1604);
#512=VERTEX_POINT('',#1605);
#513=VERTEX_POINT('',#1614);
#514=VERTEX_POINT('',#1616);
#515=VERTEX_POINT('',#1622);
#516=VERTEX_POINT('',#1624);
#517=VERTEX_POINT('',#1630);
#518=VERTEX_POINT('',#1632);
#519=VERTEX_POINT('',#1638);
#520=VERTEX_POINT('',#1640);
#521=VERTEX_POINT('',#1646);
#522=VERTEX_POINT('',#1648);
#523=VERTEX_POINT('',#1652);
#524=VERTEX_POINT('',#1654);
#525=VERTEX_POINT('',#1658);
#526=VERTEX_POINT('',#1660);
#527=VERTEX_POINT('',#1664);
#528=VERTEX_POINT('',#1666);
#529=VERTEX_POINT('',#1670);
#530=VERTEX_POINT('',#1672);
#531=VERTEX_POINT('',#1676);
#532=VERTEX_POINT('',#1678);
#533=VERTEX_POINT('',#1682);
#534=VERTEX_POINT('',#1684);
#535=VERTEX_POINT('',#1688);
#536=VERTEX_POINT('',#1690);
#537=VERTEX_POINT('',#1694);
#538=VERTEX_POINT('',#1696);
#539=VERTEX_POINT('',#1700);
#540=VERTEX_POINT('',#1702);
#541=VERTEX_POINT('',#1706);
#542=VERTEX_POINT('',#1708);
#543=VERTEX_POINT('',#1712);
#544=VERTEX_POINT('',#1714);
#545=VERTEX_POINT('',#1718);
#546=VERTEX_POINT('',#1720);
#547=EDGE_CURVE('',#451,#452,#443,.T.);
#548=EDGE_CURVE('',#452,#453,#415,.T.);
#549=EDGE_CURVE('',#453,#454,#444,.T.);
#550=EDGE_CURVE('',#454,#451,#416,.T.);
#551=EDGE_CURVE('',#452,#453,#37,.T.);
#552=EDGE_CURVE('',#455,#456,#445,.T.);
#553=EDGE_CURVE('',#456,#457,#417,.T.);
#554=EDGE_CURVE('',#457,#458,#446,.T.);
#555=EDGE_CURVE('',#458,#455,#418,.T.);
#556=EDGE_CURVE('',#456,#457,#38,.T.);
#557=EDGE_CURVE('',#459,#460,#447,.T.);
#558=EDGE_CURVE('',#460,#461,#419,.T.);
#559=EDGE_CURVE('',#461,#462,#448,.T.);
#560=EDGE_CURVE('',#462,#459,#420,.T.);
#561=EDGE_CURVE('',#460,#461,#39,.T.);
#562=EDGE_CURVE('',#463,#464,#449,.T.);
#563=EDGE_CURVE('',#464,#465,#421,.T.);
#564=EDGE_CURVE('',#465,#466,#450,.T.);
#565=EDGE_CURVE('',#466,#463,#422,.T.);
#566=EDGE_CURVE('',#464,#465,#40,.T.);
#567=EDGE_CURVE('',#467,#468,#423,.T.);
#568=EDGE_CURVE('',#468,#469,#41,.T.);
#569=EDGE_CURVE('',#469,#470,#424,.T.);
#570=EDGE_CURVE('',#470,#467,#42,.T.);
#571=EDGE_CURVE('',#468,#471,#43,.T.);
#572=EDGE_CURVE('',#472,#471,#44,.T.);
#573=EDGE_CURVE('',#469,#472,#45,.T.);
#574=EDGE_CURVE('',#467,#473,#46,.T.);
#575=EDGE_CURVE('',#474,#473,#47,.T.);
#576=EDGE_CURVE('',#474,#475,#48,.T.);
#577=EDGE_CURVE('',#471,#475,#425,.T.);
#578=EDGE_CURVE('',#476,#477,#49,.T.);
#579=EDGE_CURVE('',#477,#478,#426,.T.);
#580=EDGE_CURVE('',#478,#479,#50,.T.);
#581=EDGE_CURVE('',#479,#476,#427,.T.);
#582=EDGE_CURVE('',#480,#472,#428,.T.);
#583=EDGE_CURVE('',#475,#480,#51,.T.);
#584=EDGE_CURVE('',#481,#482,#429,.T.);
#585=EDGE_CURVE('',#482,#483,#52,.T.);
#586=EDGE_CURVE('',#483,#484,#430,.T.);
#587=EDGE_CURVE('',#484,#481,#53,.T.);
#588=EDGE_CURVE('',#482,#485,#54,.T.);
#589=EDGE_CURVE('',#486,#485,#55,.T.);
#590=EDGE_CURVE('',#483,#486,#56,.T.);
#591=EDGE_CURVE('',#481,#487,#57,.T.);
#592=EDGE_CURVE('',#488,#487,#58,.T.);
#593=EDGE_CURVE('',#488,#489,#59,.T.);
#594=EDGE_CURVE('',#485,#489,#431,.T.);
#595=EDGE_CURVE('',#490,#491,#60,.T.);
#596=EDGE_CURVE('',#491,#492,#432,.T.);
#597=EDGE_CURVE('',#492,#493,#61,.T.);
#598=EDGE_CURVE('',#493,#490,#433,.T.);
#599=EDGE_CURVE('',#494,#486,#434,.T.);
#600=EDGE_CURVE('',#489,#494,#62,.T.);
#601=EDGE_CURVE('',#495,#470,#63,.T.);
#602=EDGE_CURVE('',#495,#473,#64,.T.);
#603=EDGE_CURVE('',#496,#488,#65,.T.);
#604=EDGE_CURVE('',#494,#496,#66,.T.);
#605=EDGE_CURVE('',#497,#498,#67,.T.);
#606=EDGE_CURVE('',#497,#493,#68,.T.);
#607=EDGE_CURVE('',#498,#492,#69,.T.);
#608=EDGE_CURVE('',#498,#499,#435,.T.);
#609=EDGE_CURVE('',#499,#491,#70,.T.);
#610=EDGE_CURVE('',#499,#500,#71,.T.);
#611=EDGE_CURVE('',#500,#490,#72,.T.);
#612=EDGE_CURVE('',#500,#497,#436,.T.);
#613=EDGE_CURVE('',#501,#484,#73,.T.);
#614=EDGE_CURVE('',#501,#487,#74,.T.);
#615=EDGE_CURVE('',#502,#474,#75,.T.);
#616=EDGE_CURVE('',#480,#502,#76,.T.);
#617=EDGE_CURVE('',#503,#504,#77,.T.);
#618=EDGE_CURVE('',#503,#479,#78,.T.);
#619=EDGE_CURVE('',#504,#478,#79,.T.);
#620=EDGE_CURVE('',#504,#505,#437,.T.);
#621=EDGE_CURVE('',#505,#477,#80,.T.);
#622=EDGE_CURVE('',#505,#506,#81,.T.);
#623=EDGE_CURVE('',#506,#476,#82,.T.);
#624=EDGE_CURVE('',#506,#503,#438,.T.);
#625=EDGE_CURVE('',#507,#508,#83,.T.);
#626=EDGE_CURVE('',#507,#509,#84,.T.);
#627=EDGE_CURVE('',#509,#510,#85,.T.);
#628=EDGE_CURVE('',#508,#510,#86,.T.);
#629=EDGE_CURVE('',#511,#512,#87,.T.);
#630=EDGE_CURVE('',#511,#507,#88,.T.);
#631=EDGE_CURVE('',#512,#508,#89,.T.);
#632=EDGE_CURVE('',#495,#502,#90,.T.);
#633=EDGE_CURVE('',#501,#496,#91,.T.);
#634=EDGE_CURVE('',#513,#459,#92,.T.);
#635=EDGE_CURVE('',#514,#513,#93,.T.);
#636=EDGE_CURVE('',#514,#462,#94,.T.);
#637=EDGE_CURVE('',#513,#514,#439,.T.);
#638=EDGE_CURVE('',#515,#451,#95,.T.);
#639=EDGE_CURVE('',#516,#515,#96,.T.);
#640=EDGE_CURVE('',#516,#454,#97,.T.);
#641=EDGE_CURVE('',#515,#516,#440,.T.);
#642=EDGE_CURVE('',#517,#463,#98,.T.);
#643=EDGE_CURVE('',#518,#517,#99,.T.);
#644=EDGE_CURVE('',#518,#466,#100,.T.);
#645=EDGE_CURVE('',#517,#518,#441,.T.);
#646=EDGE_CURVE('',#519,#455,#101,.T.);
#647=EDGE_CURVE('',#520,#519,#102,.T.);
#648=EDGE_CURVE('',#520,#458,#103,.T.);
#649=EDGE_CURVE('',#519,#520,#442,.T.);
#650=EDGE_CURVE('',#521,#512,#104,.T.);
#651=EDGE_CURVE('',#522,#521,#105,.T.);
#652=EDGE_CURVE('',#522,#511,#106,.T.);
#653=EDGE_CURVE('',#523,#522,#107,.T.);
#654=EDGE_CURVE('',#524,#521,#108,.T.);
#655=EDGE_CURVE('',#523,#524,#109,.T.);
#656=EDGE_CURVE('',#525,#523,#110,.T.);
#657=EDGE_CURVE('',#526,#524,#111,.T.);
#658=EDGE_CURVE('',#525,#526,#112,.T.);
#659=EDGE_CURVE('',#527,#525,#113,.T.);
#660=EDGE_CURVE('',#528,#526,#114,.T.);
#661=EDGE_CURVE('',#527,#528,#115,.T.);
#662=EDGE_CURVE('',#529,#527,#116,.T.);
#663=EDGE_CURVE('',#530,#528,#117,.T.);
#664=EDGE_CURVE('',#529,#530,#118,.T.);
#665=EDGE_CURVE('',#531,#529,#119,.T.);
#666=EDGE_CURVE('',#532,#530,#120,.T.);
#667=EDGE_CURVE('',#531,#532,#121,.T.);
#668=EDGE_CURVE('',#533,#531,#122,.T.);
#669=EDGE_CURVE('',#534,#532,#123,.T.);
#670=EDGE_CURVE('',#533,#534,#124,.T.);
#671=EDGE_CURVE('',#535,#533,#125,.T.);
#672=EDGE_CURVE('',#536,#534,#126,.T.);
#673=EDGE_CURVE('',#535,#536,#127,.T.);
#674=EDGE_CURVE('',#537,#535,#128,.T.);
#675=EDGE_CURVE('',#538,#536,#129,.T.);
#676=EDGE_CURVE('',#537,#538,#130,.T.);
#677=EDGE_CURVE('',#539,#537,#131,.T.);
#678=EDGE_CURVE('',#540,#538,#132,.T.);
#679=EDGE_CURVE('',#539,#540,#133,.T.);
#680=EDGE_CURVE('',#541,#539,#134,.T.);
#681=EDGE_CURVE('',#542,#540,#135,.T.);
#682=EDGE_CURVE('',#541,#542,#136,.T.);
#683=EDGE_CURVE('',#543,#541,#137,.T.);
#684=EDGE_CURVE('',#544,#542,#138,.T.);
#685=EDGE_CURVE('',#543,#544,#139,.T.);
#686=EDGE_CURVE('',#545,#543,#140,.T.);
#687=EDGE_CURVE('',#546,#544,#141,.T.);
#688=EDGE_CURVE('',#545,#546,#142,.T.);
#689=EDGE_CURVE('',#509,#545,#143,.T.);
#690=EDGE_CURVE('',#510,#546,#144,.T.);
#691=ORIENTED_EDGE('',*,*,#547,.T.);
#692=ORIENTED_EDGE('',*,*,#548,.T.);
#693=ORIENTED_EDGE('',*,*,#549,.T.);
#694=ORIENTED_EDGE('',*,*,#550,.T.);
#695=ORIENTED_EDGE('',*,*,#548,.F.);
#696=ORIENTED_EDGE('',*,*,#551,.T.);
#697=ORIENTED_EDGE('',*,*,#552,.T.);
#698=ORIENTED_EDGE('',*,*,#553,.T.);
#699=ORIENTED_EDGE('',*,*,#554,.T.);
#700=ORIENTED_EDGE('',*,*,#555,.T.);
#701=ORIENTED_EDGE('',*,*,#553,.F.);
#702=ORIENTED_EDGE('',*,*,#556,.T.);
#703=ORIENTED_EDGE('',*,*,#557,.T.);
#704=ORIENTED_EDGE('',*,*,#558,.T.);
#705=ORIENTED_EDGE('',*,*,#559,.T.);
#706=ORIENTED_EDGE('',*,*,#560,.T.);
#707=ORIENTED_EDGE('',*,*,#558,.F.);
#708=ORIENTED_EDGE('',*,*,#561,.T.);
#709=ORIENTED_EDGE('',*,*,#562,.T.);
#710=ORIENTED_EDGE('',*,*,#563,.T.);
#711=ORIENTED_EDGE('',*,*,#564,.T.);
#712=ORIENTED_EDGE('',*,*,#565,.T.);
#713=ORIENTED_EDGE('',*,*,#563,.F.);
#714=ORIENTED_EDGE('',*,*,#566,.T.);
#715=ORIENTED_EDGE('',*,*,#567,.T.);
#716=ORIENTED_EDGE('',*,*,#568,.T.);
#717=ORIENTED_EDGE('',*,*,#569,.T.);
#718=ORIENTED_EDGE('',*,*,#570,.T.);
#719=ORIENTED_EDGE('',*,*,#568,.F.);
#720=ORIENTED_EDGE('',*,*,#571,.T.);
#721=ORIENTED_EDGE('',*,*,#572,.F.);
#722=ORIENTED_EDGE('',*,*,#573,.F.);
#723=ORIENTED_EDGE('',*,*,#567,.F.);
#724=ORIENTED_EDGE('',*,*,#574,.T.);
#725=ORIENTED_EDGE('',*,*,#575,.F.);
#726=ORIENTED_EDGE('',*,*,#576,.T.);
#727=ORIENTED_EDGE('',*,*,#577,.F.);
#728=ORIENTED_EDGE('',*,*,#571,.F.);
#729=ORIENTED_EDGE('',*,*,#578,.T.);
#730=ORIENTED_EDGE('',*,*,#579,.T.);
#731=ORIENTED_EDGE('',*,*,#580,.T.);
#732=ORIENTED_EDGE('',*,*,#581,.T.);
#733=ORIENTED_EDGE('',*,*,#582,.T.);
#734=ORIENTED_EDGE('',*,*,#572,.T.);
#735=ORIENTED_EDGE('',*,*,#577,.T.);
#736=ORIENTED_EDGE('',*,*,#583,.T.);
#737=ORIENTED_EDGE('',*,*,#584,.T.);
#738=ORIENTED_EDGE('',*,*,#585,.T.);
#739=ORIENTED_EDGE('',*,*,#586,.T.);
#740=ORIENTED_EDGE('',*,*,#587,.T.);
#741=ORIENTED_EDGE('',*,*,#585,.F.);
#742=ORIENTED_EDGE('',*,*,#588,.T.);
#743=ORIENTED_EDGE('',*,*,#589,.F.);
#744=ORIENTED_EDGE('',*,*,#590,.F.);
#745=ORIENTED_EDGE('',*,*,#584,.F.);
#746=ORIENTED_EDGE('',*,*,#591,.T.);
#747=ORIENTED_EDGE('',*,*,#592,.F.);
#748=ORIENTED_EDGE('',*,*,#593,.T.);
#749=ORIENTED_EDGE('',*,*,#594,.F.);
#750=ORIENTED_EDGE('',*,*,#588,.F.);
#751=ORIENTED_EDGE('',*,*,#595,.T.);
#752=ORIENTED_EDGE('',*,*,#596,.T.);
#753=ORIENTED_EDGE('',*,*,#597,.T.);
#754=ORIENTED_EDGE('',*,*,#598,.T.);
#755=ORIENTED_EDGE('',*,*,#599,.T.);
#756=ORIENTED_EDGE('',*,*,#589,.T.);
#757=ORIENTED_EDGE('',*,*,#594,.T.);
#758=ORIENTED_EDGE('',*,*,#600,.T.);
#759=ORIENTED_EDGE('',*,*,#570,.F.);
#760=ORIENTED_EDGE('',*,*,#601,.F.);
#761=ORIENTED_EDGE('',*,*,#602,.T.);
#762=ORIENTED_EDGE('',*,*,#574,.F.);
#763=ORIENTED_EDGE('',*,*,#600,.F.);
#764=ORIENTED_EDGE('',*,*,#593,.F.);
#765=ORIENTED_EDGE('',*,*,#603,.F.);
#766=ORIENTED_EDGE('',*,*,#604,.F.);
#767=ORIENTED_EDGE('',*,*,#605,.F.);
#768=ORIENTED_EDGE('',*,*,#606,.T.);
#769=ORIENTED_EDGE('',*,*,#597,.F.);
#770=ORIENTED_EDGE('',*,*,#607,.F.);
#771=ORIENTED_EDGE('',*,*,#608,.F.);
#772=ORIENTED_EDGE('',*,*,#607,.T.);
#773=ORIENTED_EDGE('',*,*,#596,.F.);
#774=ORIENTED_EDGE('',*,*,#609,.F.);
#775=ORIENTED_EDGE('',*,*,#610,.F.);
#776=ORIENTED_EDGE('',*,*,#609,.T.);
#777=ORIENTED_EDGE('',*,*,#595,.F.);
#778=ORIENTED_EDGE('',*,*,#611,.F.);
#779=ORIENTED_EDGE('',*,*,#612,.F.);
#780=ORIENTED_EDGE('',*,*,#611,.T.);
#781=ORIENTED_EDGE('',*,*,#598,.F.);
#782=ORIENTED_EDGE('',*,*,#606,.F.);
#783=ORIENTED_EDGE('',*,*,#587,.F.);
#784=ORIENTED_EDGE('',*,*,#613,.F.);
#785=ORIENTED_EDGE('',*,*,#614,.T.);
#786=ORIENTED_EDGE('',*,*,#591,.F.);
#787=ORIENTED_EDGE('',*,*,#583,.F.);
#788=ORIENTED_EDGE('',*,*,#576,.F.);
#789=ORIENTED_EDGE('',*,*,#615,.F.);
#790=ORIENTED_EDGE('',*,*,#616,.F.);
#791=ORIENTED_EDGE('',*,*,#617,.F.);
#792=ORIENTED_EDGE('',*,*,#618,.T.);
#793=ORIENTED_EDGE('',*,*,#580,.F.);
#794=ORIENTED_EDGE('',*,*,#619,.F.);
#795=ORIENTED_EDGE('',*,*,#620,.F.);
#796=ORIENTED_EDGE('',*,*,#619,.T.);
#797=ORIENTED_EDGE('',*,*,#579,.F.);
#798=ORIENTED_EDGE('',*,*,#621,.F.);
#799=ORIENTED_EDGE('',*,*,#622,.F.);
#800=ORIENTED_EDGE('',*,*,#621,.T.);
#801=ORIENTED_EDGE('',*,*,#578,.F.);
#802=ORIENTED_EDGE('',*,*,#623,.F.);
#803=ORIENTED_EDGE('',*,*,#624,.F.);
#804=ORIENTED_EDGE('',*,*,#623,.T.);
#805=ORIENTED_EDGE('',*,*,#581,.F.);
#806=ORIENTED_EDGE('',*,*,#618,.F.);
#807=ORIENTED_EDGE('',*,*,#625,.F.);
#808=ORIENTED_EDGE('',*,*,#626,.T.);
#809=ORIENTED_EDGE('',*,*,#627,.T.);
#810=ORIENTED_EDGE('',*,*,#628,.F.);
#811=ORIENTED_EDGE('',*,*,#629,.F.);
#812=ORIENTED_EDGE('',*,*,#630,.T.);
#813=ORIENTED_EDGE('',*,*,#625,.T.);
#814=ORIENTED_EDGE('',*,*,#631,.F.);
#815=ORIENTED_EDGE('',*,*,#632,.T.);
#816=ORIENTED_EDGE('',*,*,#615,.T.);
#817=ORIENTED_EDGE('',*,*,#575,.T.);
#818=ORIENTED_EDGE('',*,*,#602,.F.);
#819=ORIENTED_EDGE('',*,*,#603,.T.);
#820=ORIENTED_EDGE('',*,*,#592,.T.);
#821=ORIENTED_EDGE('',*,*,#614,.F.);
#822=ORIENTED_EDGE('',*,*,#633,.T.);
#823=ORIENTED_EDGE('',*,*,#586,.F.);
#824=ORIENTED_EDGE('',*,*,#590,.T.);
#825=ORIENTED_EDGE('',*,*,#599,.F.);
#826=ORIENTED_EDGE('',*,*,#604,.T.);
#827=ORIENTED_EDGE('',*,*,#633,.F.);
#828=ORIENTED_EDGE('',*,*,#613,.T.);
#829=ORIENTED_EDGE('',*,*,#610,.T.);
#830=ORIENTED_EDGE('',*,*,#612,.T.);
#831=ORIENTED_EDGE('',*,*,#605,.T.);
#832=ORIENTED_EDGE('',*,*,#608,.T.);
#833=ORIENTED_EDGE('',*,*,#569,.F.);
#834=ORIENTED_EDGE('',*,*,#573,.T.);
#835=ORIENTED_EDGE('',*,*,#582,.F.);
#836=ORIENTED_EDGE('',*,*,#616,.T.);
#837=ORIENTED_EDGE('',*,*,#632,.F.);
#838=ORIENTED_EDGE('',*,*,#601,.T.);
#839=ORIENTED_EDGE('',*,*,#622,.T.);
#840=ORIENTED_EDGE('',*,*,#624,.T.);
#841=ORIENTED_EDGE('',*,*,#617,.T.);
#842=ORIENTED_EDGE('',*,*,#620,.T.);
#843=ORIENTED_EDGE('',*,*,#559,.F.);
#844=ORIENTED_EDGE('',*,*,#561,.F.);
#845=ORIENTED_EDGE('',*,*,#557,.F.);
#846=ORIENTED_EDGE('',*,*,#634,.F.);
#847=ORIENTED_EDGE('',*,*,#635,.F.);
#848=ORIENTED_EDGE('',*,*,#636,.T.);
#849=ORIENTED_EDGE('',*,*,#560,.F.);
#850=ORIENTED_EDGE('',*,*,#636,.F.);
#851=ORIENTED_EDGE('',*,*,#637,.F.);
#852=ORIENTED_EDGE('',*,*,#634,.T.);
#853=ORIENTED_EDGE('',*,*,#549,.F.);
#854=ORIENTED_EDGE('',*,*,#551,.F.);
#855=ORIENTED_EDGE('',*,*,#547,.F.);
#856=ORIENTED_EDGE('',*,*,#638,.F.);
#857=ORIENTED_EDGE('',*,*,#639,.F.);
#858=ORIENTED_EDGE('',*,*,#640,.T.);
#859=ORIENTED_EDGE('',*,*,#550,.F.);
#860=ORIENTED_EDGE('',*,*,#640,.F.);
#861=ORIENTED_EDGE('',*,*,#641,.F.);
#862=ORIENTED_EDGE('',*,*,#638,.T.);
#863=ORIENTED_EDGE('',*,*,#564,.F.);
#864=ORIENTED_EDGE('',*,*,#566,.F.);
#865=ORIENTED_EDGE('',*,*,#562,.F.);
#866=ORIENTED_EDGE('',*,*,#642,.F.);
#867=ORIENTED_EDGE('',*,*,#643,.F.);
#868=ORIENTED_EDGE('',*,*,#644,.T.);
#869=ORIENTED_EDGE('',*,*,#565,.F.);
#870=ORIENTED_EDGE('',*,*,#644,.F.);
#871=ORIENTED_EDGE('',*,*,#645,.F.);
#872=ORIENTED_EDGE('',*,*,#642,.T.);
#873=ORIENTED_EDGE('',*,*,#554,.F.);
#874=ORIENTED_EDGE('',*,*,#556,.F.);
#875=ORIENTED_EDGE('',*,*,#552,.F.);
#876=ORIENTED_EDGE('',*,*,#646,.F.);
#877=ORIENTED_EDGE('',*,*,#647,.F.);
#878=ORIENTED_EDGE('',*,*,#648,.T.);
#879=ORIENTED_EDGE('',*,*,#555,.F.);
#880=ORIENTED_EDGE('',*,*,#648,.F.);
#881=ORIENTED_EDGE('',*,*,#649,.F.);
#882=ORIENTED_EDGE('',*,*,#646,.T.);
#883=ORIENTED_EDGE('',*,*,#629,.T.);
#884=ORIENTED_EDGE('',*,*,#650,.F.);
#885=ORIENTED_EDGE('',*,*,#651,.F.);
#886=ORIENTED_EDGE('',*,*,#652,.T.);
#887=ORIENTED_EDGE('',*,*,#653,.T.);
#888=ORIENTED_EDGE('',*,*,#651,.T.);
#889=ORIENTED_EDGE('',*,*,#654,.F.);
#890=ORIENTED_EDGE('',*,*,#655,.F.);
#891=ORIENTED_EDGE('',*,*,#656,.T.);
#892=ORIENTED_EDGE('',*,*,#655,.T.);
#893=ORIENTED_EDGE('',*,*,#657,.F.);
#894=ORIENTED_EDGE('',*,*,#658,.F.);
#895=ORIENTED_EDGE('',*,*,#659,.T.);
#896=ORIENTED_EDGE('',*,*,#658,.T.);
#897=ORIENTED_EDGE('',*,*,#660,.F.);
#898=ORIENTED_EDGE('',*,*,#661,.F.);
#899=ORIENTED_EDGE('',*,*,#662,.T.);
#900=ORIENTED_EDGE('',*,*,#661,.T.);
#901=ORIENTED_EDGE('',*,*,#663,.F.);
#902=ORIENTED_EDGE('',*,*,#664,.F.);
#903=ORIENTED_EDGE('',*,*,#665,.T.);
#904=ORIENTED_EDGE('',*,*,#664,.T.);
#905=ORIENTED_EDGE('',*,*,#666,.F.);
#906=ORIENTED_EDGE('',*,*,#667,.F.);
#907=ORIENTED_EDGE('',*,*,#668,.T.);
#908=ORIENTED_EDGE('',*,*,#667,.T.);
#909=ORIENTED_EDGE('',*,*,#669,.F.);
#910=ORIENTED_EDGE('',*,*,#670,.F.);
#911=ORIENTED_EDGE('',*,*,#671,.T.);
#912=ORIENTED_EDGE('',*,*,#670,.T.);
#913=ORIENTED_EDGE('',*,*,#672,.F.);
#914=ORIENTED_EDGE('',*,*,#673,.F.);
#915=ORIENTED_EDGE('',*,*,#674,.T.);
#916=ORIENTED_EDGE('',*,*,#673,.T.);
#917=ORIENTED_EDGE('',*,*,#675,.F.);
#918=ORIENTED_EDGE('',*,*,#676,.F.);
#919=ORIENTED_EDGE('',*,*,#677,.T.);
#920=ORIENTED_EDGE('',*,*,#676,.T.);
#921=ORIENTED_EDGE('',*,*,#678,.F.);
#922=ORIENTED_EDGE('',*,*,#679,.F.);
#923=ORIENTED_EDGE('',*,*,#680,.T.);
#924=ORIENTED_EDGE('',*,*,#679,.T.);
#925=ORIENTED_EDGE('',*,*,#681,.F.);
#926=ORIENTED_EDGE('',*,*,#682,.F.);
#927=ORIENTED_EDGE('',*,*,#683,.T.);
#928=ORIENTED_EDGE('',*,*,#682,.T.);
#929=ORIENTED_EDGE('',*,*,#684,.F.);
#930=ORIENTED_EDGE('',*,*,#685,.F.);
#931=ORIENTED_EDGE('',*,*,#686,.T.);
#932=ORIENTED_EDGE('',*,*,#685,.T.);
#933=ORIENTED_EDGE('',*,*,#687,.F.);
#934=ORIENTED_EDGE('',*,*,#688,.F.);
#935=ORIENTED_EDGE('',*,*,#689,.T.);
#936=ORIENTED_EDGE('',*,*,#688,.T.);
#937=ORIENTED_EDGE('',*,*,#690,.F.);
#938=ORIENTED_EDGE('',*,*,#627,.F.);
#939=ORIENTED_EDGE('',*,*,#631,.T.);
#940=ORIENTED_EDGE('',*,*,#628,.T.);
#941=ORIENTED_EDGE('',*,*,#690,.T.);
#942=ORIENTED_EDGE('',*,*,#687,.T.);
#943=ORIENTED_EDGE('',*,*,#684,.T.);
#944=ORIENTED_EDGE('',*,*,#681,.T.);
#945=ORIENTED_EDGE('',*,*,#678,.T.);
#946=ORIENTED_EDGE('',*,*,#675,.T.);
#947=ORIENTED_EDGE('',*,*,#672,.T.);
#948=ORIENTED_EDGE('',*,*,#669,.T.);
#949=ORIENTED_EDGE('',*,*,#666,.T.);
#950=ORIENTED_EDGE('',*,*,#663,.T.);
#951=ORIENTED_EDGE('',*,*,#660,.T.);
#952=ORIENTED_EDGE('',*,*,#657,.T.);
#953=ORIENTED_EDGE('',*,*,#654,.T.);
#954=ORIENTED_EDGE('',*,*,#650,.T.);
#955=ORIENTED_EDGE('',*,*,#635,.T.);
#956=ORIENTED_EDGE('',*,*,#637,.T.);
#957=ORIENTED_EDGE('',*,*,#639,.T.);
#958=ORIENTED_EDGE('',*,*,#641,.T.);
#959=ORIENTED_EDGE('',*,*,#643,.T.);
#960=ORIENTED_EDGE('',*,*,#645,.T.);
#961=ORIENTED_EDGE('',*,*,#647,.T.);
#962=ORIENTED_EDGE('',*,*,#649,.T.);
#963=ORIENTED_EDGE('',*,*,#630,.F.);
#964=ORIENTED_EDGE('',*,*,#652,.F.);
#965=ORIENTED_EDGE('',*,*,#653,.F.);
#966=ORIENTED_EDGE('',*,*,#656,.F.);
#967=ORIENTED_EDGE('',*,*,#659,.F.);
#968=ORIENTED_EDGE('',*,*,#662,.F.);
#969=ORIENTED_EDGE('',*,*,#665,.F.);
#970=ORIENTED_EDGE('',*,*,#668,.F.);
#971=ORIENTED_EDGE('',*,*,#671,.F.);
#972=ORIENTED_EDGE('',*,*,#674,.F.);
#973=ORIENTED_EDGE('',*,*,#677,.F.);
#974=ORIENTED_EDGE('',*,*,#680,.F.);
#975=ORIENTED_EDGE('',*,*,#683,.F.);
#976=ORIENTED_EDGE('',*,*,#686,.F.);
#977=ORIENTED_EDGE('',*,*,#689,.F.);
#978=ORIENTED_EDGE('',*,*,#626,.F.);
#979=CONICAL_SURFACE('',#1053,1.45,0.785398163397448);
#980=CONICAL_SURFACE('',#1057,1.45,0.785398163397448);
#981=CONICAL_SURFACE('',#1061,1.45,0.785398163397448);
#982=CONICAL_SURFACE('',#1065,1.45,0.785398163397448);
#983=ADVANCED_FACE('',(#293),#979,.T.);
#984=ADVANCED_FACE('',(#294),#253,.T.);
#985=ADVANCED_FACE('',(#295),#980,.T.);
#986=ADVANCED_FACE('',(#296),#254,.T.);
#987=ADVANCED_FACE('',(#297),#981,.T.);
#988=ADVANCED_FACE('',(#298),#255,.T.);
#989=ADVANCED_FACE('',(#299),#982,.T.);
#990=ADVANCED_FACE('',(#300),#256,.T.);
#991=ADVANCED_FACE('',(#301),#25,.T.);
#992=ADVANCED_FACE('',(#302),#257,.T.);
#993=ADVANCED_FACE('',(#303,#15),#258,.T.);
#994=ADVANCED_FACE('',(#304),#26,.T.);
#995=ADVANCED_FACE('',(#305),#27,.T.);
#996=ADVANCED_FACE('',(#306),#259,.T.);
#997=ADVANCED_FACE('',(#307,#16),#260,.T.);
#998=ADVANCED_FACE('',(#308),#28,.T.);
#999=ADVANCED_FACE('',(#309),#261,.F.);
#1000=ADVANCED_FACE('',(#310),#262,.F.);
#1001=ADVANCED_FACE('',(#311),#263,.F.);
#1002=ADVANCED_FACE('',(#312),#29,.F.);
#1003=ADVANCED_FACE('',(#313),#264,.F.);
#1004=ADVANCED_FACE('',(#314),#30,.F.);
#1005=ADVANCED_FACE('',(#315),#265,.F.);
#1006=ADVANCED_FACE('',(#316),#266,.F.);
#1007=ADVANCED_FACE('',(#317),#267,.F.);
#1008=ADVANCED_FACE('',(#318),#31,.F.);
#1009=ADVANCED_FACE('',(#319),#268,.F.);
#1010=ADVANCED_FACE('',(#320),#32,.F.);
#1011=ADVANCED_FACE('',(#321),#269,.T.);
#1012=ADVANCED_FACE('',(#322,#17,#18),#270,.T.);
#1013=ADVANCED_FACE('',(#323,#19),#271,.T.);
#1014=ADVANCED_FACE('',(#324,#20),#272,.T.);
#1015=ADVANCED_FACE('',(#325),#273,.T.);
#1016=ADVANCED_FACE('',(#326),#33,.T.);
#1017=ADVANCED_FACE('',(#327),#274,.T.);
#1018=ADVANCED_FACE('',(#328),#34,.T.);
#1019=ADVANCED_FACE('',(#329),#275,.T.);
#1020=ADVANCED_FACE('',(#330),#35,.T.);
#1021=ADVANCED_FACE('',(#331),#276,.T.);
#1022=ADVANCED_FACE('',(#332),#36,.T.);
#1023=ADVANCED_FACE('',(#333),#277,.T.);
#1024=ADVANCED_FACE('',(#334),#278,.T.);
#1025=ADVANCED_FACE('',(#335),#279,.T.);
#1026=ADVANCED_FACE('',(#336),#280,.T.);
#1027=ADVANCED_FACE('',(#337),#281,.T.);
#1028=ADVANCED_FACE('',(#338),#282,.T.);
#1029=ADVANCED_FACE('',(#339),#283,.T.);
#1030=ADVANCED_FACE('',(#340),#284,.T.);
#1031=ADVANCED_FACE('',(#341),#285,.T.);
#1032=ADVANCED_FACE('',(#342),#286,.T.);
#1033=ADVANCED_FACE('',(#343),#287,.T.);
#1034=ADVANCED_FACE('',(#344),#288,.T.);
#1035=ADVANCED_FACE('',(#345),#289,.T.);
#1036=ADVANCED_FACE('',(#346),#290,.T.);
#1037=ADVANCED_FACE('',(#347,#21,#22,#23,#24),#291,.T.);
#1038=ADVANCED_FACE('',(#348),#292,.F.);
#1039=CLOSED_SHELL('',(#983,#984,#985,#986,#987,#988,#989,#990,#991,#992,
#993,#994,#995,#996,#997,#998,#999,#1000,#1001,#1002,#1003,#1004,#1005,
#1006,#1007,#1008,#1009,#1010,#1011,#1012,#1013,#1014,#1015,#1016,#1017,
#1018,#1019,#1020,#1021,#1022,#1023,#1024,#1025,#1026,#1027,#1028,#1029,
#1030,#1031,#1032,#1033,#1034,#1035,#1036,#1037,#1038));
#1040=DERIVED_UNIT_ELEMENT(#1042,1.);
#1041=DERIVED_UNIT_ELEMENT(#1733,-3.);
#1042=(
MASS_UNIT()
NAMED_UNIT(*)
SI_UNIT(.KILO.,.GRAM.)
);
#1043=DERIVED_UNIT((#1040,#1041));
#1044=MEASURE_REPRESENTATION_ITEM('density measure',
POSITIVE_RATIO_MEASURE(7850.),#1043);
#1045=PROPERTY_DEFINITION_REPRESENTATION(#1050,#1047);
#1046=PROPERTY_DEFINITION_REPRESENTATION(#1051,#1048);
#1047=REPRESENTATION('material name',(#1049),#1730);
#1048=REPRESENTATION('density',(#1044),#1730);
#1049=DESCRIPTIVE_REPRESENTATION_ITEM('Steel','Steel');
#1050=PROPERTY_DEFINITION('material property','material name',#1740);
#1051=PROPERTY_DEFINITION('material property','density of part',#1740);
#1052=AXIS2_PLACEMENT_3D('',#1415,#1137,#1138);
#1053=AXIS2_PLACEMENT_3D('',#1416,#1139,#1140);
#1054=AXIS2_PLACEMENT_3D('',#1423,#1141,#1142);
#1055=AXIS2_PLACEMENT_3D('',#1428,#1143,#1144);
#1056=AXIS2_PLACEMENT_3D('',#1429,#1145,#1146);
#1057=AXIS2_PLACEMENT_3D('',#1431,#1148,#1149);
#1058=AXIS2_PLACEMENT_3D('',#1438,#1150,#1151);
#1059=AXIS2_PLACEMENT_3D('',#1443,#1152,#1153);
#1060=AXIS2_PLACEMENT_3D('',#1444,#1154,#1155);
#1061=AXIS2_PLACEMENT_3D('',#1446,#1157,#1158);
#1062=AXIS2_PLACEMENT_3D('',#1453,#1159,#1160);
#1063=AXIS2_PLACEMENT_3D('',#1458,#1161,#1162);
#1064=AXIS2_PLACEMENT_3D('',#1459,#1163,#1164);
#1065=AXIS2_PLACEMENT_3D('',#1461,#1166,#1167);
#1066=AXIS2_PLACEMENT_3D('',#1468,#1168,#1169);
#1067=AXIS2_PLACEMENT_3D('',#1473,#1170,#1171);
#1068=AXIS2_PLACEMENT_3D('',#1474,#1172,#1173);
#1069=AXIS2_PLACEMENT_3D('',#1476,#1175,#1176);
#1070=AXIS2_PLACEMENT_3D('',#1479,#1177,#1178);
#1071=AXIS2_PLACEMENT_3D('',#1483,#1180,#1181);
#1072=AXIS2_PLACEMENT_3D('',#1485,#1183,#1184);
#1073=AXIS2_PLACEMENT_3D('',#1491,#1188,#1189);
#1074=AXIS2_PLACEMENT_3D('',#1498,#1193,#1194);
#1075=AXIS2_PLACEMENT_3D('',#1503,#1196,#1197);
#1076=AXIS2_PLACEMENT_3D('',#1506,#1199,#1200);
#1077=AXIS2_PLACEMENT_3D('',#1507,#1201,#1202);
#1078=AXIS2_PLACEMENT_3D('',#1509,#1203,#1204);
#1079=AXIS2_PLACEMENT_3D('',#1511,#1206,#1207);
#1080=AXIS2_PLACEMENT_3D('',#1514,#1208,#1209);
#1081=AXIS2_PLACEMENT_3D('',#1518,#1211,#1212);
#1082=AXIS2_PLACEMENT_3D('',#1520,#1214,#1215);
#1083=AXIS2_PLACEMENT_3D('',#1526,#1219,#1220);
#1084=AXIS2_PLACEMENT_3D('',#1533,#1224,#1225);
#1085=AXIS2_PLACEMENT_3D('',#1538,#1227,#1228);
#1086=AXIS2_PLACEMENT_3D('',#1541,#1230,#1231);
#1087=AXIS2_PLACEMENT_3D('',#1542,#1232,#1233);
#1088=AXIS2_PLACEMENT_3D('',#1544,#1234,#1235);
#1089=AXIS2_PLACEMENT_3D('',#1546,#1237,#1238);
#1090=AXIS2_PLACEMENT_3D('',#1550,#1241,#1242);
#1091=AXIS2_PLACEMENT_3D('',#1554,#1245,#1246);
#1092=AXIS2_PLACEMENT_3D('',#1560,#1250,#1251);
#1093=AXIS2_PLACEMENT_3D('',#1562,#1252,#1253);
#1094=AXIS2_PLACEMENT_3D('',#1564,#1255,#1256);
#1095=AXIS2_PLACEMENT_3D('',#1568,#1259,#1260);
#1096=AXIS2_PLACEMENT_3D('',#1569,#1261,#1262);
#1097=AXIS2_PLACEMENT_3D('',#1570,#1263,#1264);
#1098=AXIS2_PLACEMENT_3D('',#1574,#1267,#1268);
#1099=AXIS2_PLACEMENT_3D('',#1578,#1271,#1272);
#1100=AXIS2_PLACEMENT_3D('',#1584,#1276,#1277);
#1101=AXIS2_PLACEMENT_3D('',#1586,#1278,#1279);
#1102=AXIS2_PLACEMENT_3D('',#1588,#1281,#1282);
#1103=AXIS2_PLACEMENT_3D('',#1592,#1285,#1286);
#1104=AXIS2_PLACEMENT_3D('',#1593,#1287,#1288);
#1105=AXIS2_PLACEMENT_3D('',#1594,#1289,#1290);
#1106=AXIS2_PLACEMENT_3D('',#1603,#1295,#1296);
#1107=AXIS2_PLACEMENT_3D('',#1611,#1302,#1303);
#1108=AXIS2_PLACEMENT_3D('',#1612,#1304,#1305);
#1109=AXIS2_PLACEMENT_3D('',#1613,#1306,#1307);
#1110=AXIS2_PLACEMENT_3D('',#1619,#1311,#1312);
#1111=AXIS2_PLACEMENT_3D('',#1620,#1313,#1314);
#1112=AXIS2_PLACEMENT_3D('',#1621,#1315,#1316);
#1113=AXIS2_PLACEMENT_3D('',#1627,#1320,#1321);
#1114=AXIS2_PLACEMENT_3D('',#1628,#1322,#1323);
#1115=AXIS2_PLACEMENT_3D('',#1629,#1324,#1325);
#1116=AXIS2_PLACEMENT_3D('',#1635,#1329,#1330);
#1117=AXIS2_PLACEMENT_3D('',#1636,#1331,#1332);
#1118=AXIS2_PLACEMENT_3D('',#1637,#1333,#1334);
#1119=AXIS2_PLACEMENT_3D('',#1643,#1338,#1339);
#1120=AXIS2_PLACEMENT_3D('',#1644,#1340,#1341);
#1121=AXIS2_PLACEMENT_3D('',#1645,#1342,#1343);
#1122=AXIS2_PLACEMENT_3D('',#1651,#1347,#1348);
#1123=AXIS2_PLACEMENT_3D('',#1657,#1352,#1353);
#1124=AXIS2_PLACEMENT_3D('',#1663,#1357,#1358);
#1125=AXIS2_PLACEMENT_3D('',#1669,#1362,#1363);
#1126=AXIS2_PLACEMENT_3D('',#1675,#1367,#1368);
#1127=AXIS2_PLACEMENT_3D('',#1681,#1372,#1373);
#1128=AXIS2_PLACEMENT_3D('',#1687,#1377,#1378);
#1129=AXIS2_PLACEMENT_3D('',#1693,#1382,#1383);
#1130=AXIS2_PLACEMENT_3D('',#1699,#1387,#1388);
#1131=AXIS2_PLACEMENT_3D('',#1705,#1392,#1393);
#1132=AXIS2_PLACEMENT_3D('',#1711,#1397,#1398);
#1133=AXIS2_PLACEMENT_3D('',#1717,#1402,#1403);
#1134=AXIS2_PLACEMENT_3D('',#1723,#1407,#1408);
#1135=AXIS2_PLACEMENT_3D('',#1726,#1411,#1412);
#1136=AXIS2_PLACEMENT_3D('',#1727,#1413,#1414);
#1137=DIRECTION('axis',(0.,0.,1.));
#1138=DIRECTION('refdir',(1.,0.,0.));
#1139=DIRECTION('center_axis',(0.,-1.,0.));
#1140=DIRECTION('ref_axis',(-1.,0.,0.));
#1141=DIRECTION('center_axis',(0.,-1.,0.));
#1142=DIRECTION('ref_axis',(-1.,0.,0.));
#1143=DIRECTION('center_axis',(0.,1.,0.));
#1144=DIRECTION('ref_axis',(-1.,0.,0.));
#1145=DIRECTION('center_axis',(0.,1.,0.));
#1146=DIRECTION('ref_axis',(-1.,0.,0.));
#1147=DIRECTION('',(-1.,0.,0.));
#1148=DIRECTION('center_axis',(0.,-1.,0.));
#1149=DIRECTION('ref_axis',(-1.,0.,0.));
#1150=DIRECTION('center_axis',(0.,-1.,0.));
#1151=DIRECTION('ref_axis',(-1.,0.,0.));
#1152=DIRECTION('center_axis',(0.,1.,0.));
#1153=DIRECTION('ref_axis',(-1.,0.,0.));
#1154=DIRECTION('center_axis',(0.,1.,0.));
#1155=DIRECTION('ref_axis',(-1.,0.,0.));
#1156=DIRECTION('',(1.,0.,0.));
#1157=DIRECTION('center_axis',(0.,-1.,0.));
#1158=DIRECTION('ref_axis',(-1.,0.,0.));
#1159=DIRECTION('center_axis',(0.,-1.,0.));
#1160=DIRECTION('ref_axis',(-1.,0.,0.));
#1161=DIRECTION('center_axis',(0.,1.,0.));
#1162=DIRECTION('ref_axis',(-1.,0.,0.));
#1163=DIRECTION('center_axis',(0.,1.,0.));
#1164=DIRECTION('ref_axis',(-1.,0.,0.));
#1165=DIRECTION('',(1.,0.,1.75695442260763E-16));
#1166=DIRECTION('center_axis',(0.,-1.,0.));
#1167=DIRECTION('ref_axis',(-1.,0.,0.));
#1168=DIRECTION('center_axis',(0.,-1.,0.));
#1169=DIRECTION('ref_axis',(-1.,0.,0.));
#1170=DIRECTION('center_axis',(0.,1.,0.));
#1171=DIRECTION('ref_axis',(-1.,0.,0.));
#1172=DIRECTION('center_axis',(0.,1.,0.));
#1173=DIRECTION('ref_axis',(-1.,0.,0.));
#1174=DIRECTION('',(-1.,0.,0.));
#1175=DIRECTION('center_axis',(0.,-1.,0.));
#1176=DIRECTION('ref_axis',(-0.707106781186548,0.,-0.707106781186547));
#1177=DIRECTION('center_axis',(0.,1.,0.));
#1178=DIRECTION('ref_axis',(-0.707106781186548,0.,-0.707106781186547));
#1179=DIRECTION('',(0.,1.,0.));
#1180=DIRECTION('center_axis',(0.,-1.,0.));
#1181=DIRECTION('ref_axis',(-0.707106781186548,0.,-0.707106781186547));
#1182=DIRECTION('',(0.,-1.,0.));
#1183=DIRECTION('center_axis',(-1.,0.,0.));
#1184=DIRECTION('ref_axis',(0.,-1.,0.));
#1185=DIRECTION('',(0.,0.,1.));
#1186=DIRECTION('',(0.,-1.,0.));
#1187=DIRECTION('',(0.,0.,1.));
#1188=DIRECTION('center_axis',(0.,-1.,0.));
#1189=DIRECTION('ref_axis',(1.,0.,0.));
#1190=DIRECTION('',(1.,0.,0.));
#1191=DIRECTION('',(0.,0.,-1.));
#1192=DIRECTION('',(-1.,0.,0.));
#1193=DIRECTION('center_axis',(0.,1.,0.));
#1194=DIRECTION('ref_axis',(-0.707106781186548,0.,0.707106781186547));
#1195=DIRECTION('',(1.,0.,0.));
#1196=DIRECTION('center_axis',(0.,1.,0.));
#1197=DIRECTION('ref_axis',(0.,0.,1.));
#1198=DIRECTION('',(-1.,0.,0.));
#1199=DIRECTION('center_axis',(0.,1.,0.));
#1200=DIRECTION('ref_axis',(0.,0.,-1.));
#1201=DIRECTION('center_axis',(0.,1.,0.));
#1202=DIRECTION('ref_axis',(-0.707106781186548,0.,0.707106781186547));
#1203=DIRECTION('center_axis',(0.,-1.,0.));
#1204=DIRECTION('ref_axis',(-0.707106781186548,0.,0.707106781186547));
#1205=DIRECTION('',(0.,1.,0.));
#1206=DIRECTION('center_axis',(0.,-1.,0.));
#1207=DIRECTION('ref_axis',(-0.707106781186548,0.,-0.707106781186547));
#1208=DIRECTION('center_axis',(0.,1.,0.));
#1209=DIRECTION('ref_axis',(-0.707106781186548,0.,-0.707106781186547));
#1210=DIRECTION('',(0.,1.,0.));
#1211=DIRECTION('center_axis',(0.,-1.,0.));
#1212=DIRECTION('ref_axis',(-0.707106781186548,0.,-0.707106781186547));
#1213=DIRECTION('',(0.,-1.,0.));
#1214=DIRECTION('center_axis',(-1.,0.,0.));
#1215=DIRECTION('ref_axis',(0.,-1.,0.));
#1216=DIRECTION('',(0.,0.,1.));
#1217=DIRECTION('',(0.,-1.,0.));
#1218=DIRECTION('',(0.,0.,1.));
#1219=DIRECTION('center_axis',(0.,-1.,0.));
#1220=DIRECTION('ref_axis',(1.,0.,0.));
#1221=DIRECTION('',(1.,0.,2.1350442781253E-16));
#1222=DIRECTION('',(0.,0.,-1.));
#1223=DIRECTION('',(-1.,0.,0.));
#1224=DIRECTION('center_axis',(0.,1.,0.));
#1225=DIRECTION('ref_axis',(-0.707106781186548,0.,0.707106781186547));
#1226=DIRECTION('',(1.,0.,1.2335811384724E-15));
#1227=DIRECTION('center_axis',(0.,1.,0.));
#1228=DIRECTION('ref_axis',(0.,0.,1.));
#1229=DIRECTION('',(-1.,0.,1.2335811384724E-15));
#1230=DIRECTION('center_axis',(0.,1.,0.));
#1231=DIRECTION('ref_axis',(0.,0.,-1.));
#1232=DIRECTION('center_axis',(0.,1.,0.));
#1233=DIRECTION('ref_axis',(-0.707106781186548,0.,0.707106781186547));
#1234=DIRECTION('center_axis',(0.,-1.,0.));
#1235=DIRECTION('ref_axis',(-0.707106781186548,0.,0.707106781186547));
#1236=DIRECTION('',(0.,1.,0.));
#1237=DIRECTION('center_axis',(0.,0.,1.));
#1238=DIRECTION('ref_axis',(-1.,0.,0.));
#1239=DIRECTION('',(-1.,0.,0.));
#1240=DIRECTION('',(0.,-1.,0.));
#1241=DIRECTION('center_axis',(0.,0.,-1.));
#1242=DIRECTION('ref_axis',(1.,0.,0.));
#1243=DIRECTION('',(0.,-1.,0.));
#1244=DIRECTION('',(1.,0.,0.));
#1245=DIRECTION('center_axis',(-1.2335811384724E-15,0.,-1.));
#1246=DIRECTION('ref_axis',(1.,0.,-1.2335811384724E-15));
#1247=DIRECTION('',(1.,0.,-1.2335811384724E-15));
#1248=DIRECTION('',(0.,-1.,0.));
#1249=DIRECTION('',(0.,-1.,0.));
#1250=DIRECTION('center_axis',(0.,-1.,0.));
#1251=DIRECTION('ref_axis',(0.,0.,1.));
#1252=DIRECTION('center_axis',(0.,-1.,0.));
#1253=DIRECTION('ref_axis',(0.,0.,1.));
#1254=DIRECTION('',(0.,-1.,0.));
#1255=DIRECTION('center_axis',(-1.2335811384724E-15,0.,1.));
#1256=DIRECTION('ref_axis',(-1.,0.,-1.2335811384724E-15));
#1257=DIRECTION('',(-1.,0.,-1.2335811384724E-15));
#1258=DIRECTION('',(0.,-1.,0.));
#1259=DIRECTION('center_axis',(0.,-1.,0.));
#1260=DIRECTION('ref_axis',(0.,0.,-1.));
#1261=DIRECTION('center_axis',(0.,-1.,0.));
#1262=DIRECTION('ref_axis',(0.,0.,-1.));
#1263=DIRECTION('center_axis',(-2.1350442781253E-16,0.,1.));
#1264=DIRECTION('ref_axis',(-1.,0.,-2.1350442781253E-16));
#1265=DIRECTION('',(-1.,0.,-2.1350442781253E-16));
#1266=DIRECTION('',(0.,-1.,0.));
#1267=DIRECTION('center_axis',(0.,0.,-1.));
#1268=DIRECTION('ref_axis',(1.,0.,0.));
#1269=DIRECTION('',(0.,-1.,0.));
#1270=DIRECTION('',(1.,0.,0.));
#1271=DIRECTION('center_axis',(0.,0.,-1.));
#1272=DIRECTION('ref_axis',(1.,0.,0.));
#1273=DIRECTION('',(1.,0.,0.));
#1274=DIRECTION('',(0.,-1.,0.));
#1275=DIRECTION('',(0.,-1.,0.));
#1276=DIRECTION('center_axis',(0.,-1.,0.));
#1277=DIRECTION('ref_axis',(0.,0.,1.));
#1278=DIRECTION('center_axis',(0.,-1.,0.));
#1279=DIRECTION('ref_axis',(0.,0.,1.));
#1280=DIRECTION('',(0.,-1.,0.));
#1281=DIRECTION('center_axis',(0.,0.,1.));
#1282=DIRECTION('ref_axis',(-1.,0.,0.));
#1283=DIRECTION('',(-1.,0.,0.));
#1284=DIRECTION('',(0.,-1.,0.));
#1285=DIRECTION('center_axis',(0.,-1.,0.));
#1286=DIRECTION('ref_axis',(0.,0.,-1.));
#1287=DIRECTION('center_axis',(0.,-1.,0.));
#1288=DIRECTION('ref_axis',(0.,0.,-1.));
#1289=DIRECTION('center_axis',(0.,0.,1.));
#1290=DIRECTION('ref_axis',(1.,0.,0.));
#1291=DIRECTION('',(0.,1.,0.));
#1292=DIRECTION('',(1.,0.,0.));
#1293=DIRECTION('',(0.,1.,0.));
#1294=DIRECTION('',(1.,0.,0.));
#1295=DIRECTION('center_axis',(-1.,0.,0.));
#1296=DIRECTION('ref_axis',(0.,0.,1.));
#1297=DIRECTION('',(0.,1.,0.));
#1298=DIRECTION('',(0.,0.,1.));
#1299=DIRECTION('',(0.,0.,1.));
#1300=DIRECTION('',(0.,0.,1.));
#1301=DIRECTION('',(0.,0.,1.));
#1302=DIRECTION('center_axis',(0.,1.,0.));
#1303=DIRECTION('ref_axis',(-1.,0.,0.));
#1304=DIRECTION('center_axis',(0.,1.,0.));
#1305=DIRECTION('ref_axis',(-1.,0.,0.));
#1306=DIRECTION('center_axis',(-1.75695442260763E-16,0.,1.));
#1307=DIRECTION('ref_axis',(1.,0.,1.75695442260763E-16));
#1308=DIRECTION('',(0.,1.,0.));
#1309=DIRECTION('',(-1.,0.,-1.75695442260763E-16));
#1310=DIRECTION('',(0.,1.,0.));
#1311=DIRECTION('center_axis',(0.,1.,0.));
#1312=DIRECTION('ref_axis',(-1.,0.,0.));
#1313=DIRECTION('center_axis',(0.,-1.,0.));
#1314=DIRECTION('ref_axis',(-1.,0.,0.));
#1315=DIRECTION('center_axis',(0.,0.,-1.));
#1316=DIRECTION('ref_axis',(-1.,0.,0.));
#1317=DIRECTION('',(0.,1.,0.));
#1318=DIRECTION('',(1.,0.,0.));
#1319=DIRECTION('',(0.,1.,0.));
#1320=DIRECTION('center_axis',(0.,1.,0.));
#1321=DIRECTION('ref_axis',(-1.,0.,0.));
#1322=DIRECTION('center_axis',(0.,-1.,0.));
#1323=DIRECTION('ref_axis',(-1.,0.,0.));
#1324=DIRECTION('center_axis',(0.,0.,-1.));
#1325=DIRECTION('ref_axis',(-1.,0.,0.));
#1326=DIRECTION('',(0.,1.,0.));
#1327=DIRECTION('',(1.,0.,0.));
#1328=DIRECTION('',(0.,1.,0.));
#1329=DIRECTION('center_axis',(0.,1.,0.));
#1330=DIRECTION('ref_axis',(-1.,0.,0.));
#1331=DIRECTION('center_axis',(0.,-1.,0.));
#1332=DIRECTION('ref_axis',(-1.,0.,0.));
#1333=DIRECTION('center_axis',(0.,0.,1.));
#1334=DIRECTION('ref_axis',(1.,0.,0.));
#1335=DIRECTION('',(0.,1.,0.));
#1336=DIRECTION('',(-1.,0.,0.));
#1337=DIRECTION('',(0.,1.,0.));
#1338=DIRECTION('center_axis',(0.,1.,0.));
#1339=DIRECTION('ref_axis',(-1.,0.,0.));
#1340=DIRECTION('center_axis',(0.,-1.,0.));
#1341=DIRECTION('ref_axis',(-1.,0.,0.));
#1342=DIRECTION('center_axis',(0.,0.,-1.));
#1343=DIRECTION('ref_axis',(-1.,0.,0.));
#1344=DIRECTION('',(-1.,0.,0.));
#1345=DIRECTION('',(0.,1.,0.));
#1346=DIRECTION('',(-1.,0.,0.));
#1347=DIRECTION('center_axis',(-1.,0.,0.));
#1348=DIRECTION('ref_axis',(0.,0.,1.));
#1349=DIRECTION('',(0.,0.,1.));
#1350=DIRECTION('',(0.,0.,1.));
#1351=DIRECTION('',(0.,1.,0.));
#1352=DIRECTION('center_axis',(0.,0.,-1.));
#1353=DIRECTION('ref_axis',(-1.,0.,0.));
#1354=DIRECTION('',(-1.,0.,0.));
#1355=DIRECTION('',(-1.,0.,0.));
#1356=DIRECTION('',(0.,1.,0.));
#1357=DIRECTION('center_axis',(1.,0.,0.));
#1358=DIRECTION('ref_axis',(0.,0.,-1.));
#1359=DIRECTION('',(0.,0.,-1.));
#1360=DIRECTION('',(0.,0.,-1.));
#1361=DIRECTION('',(0.,1.,0.));
#1362=DIRECTION('center_axis',(0.,0.,-1.));
#1363=DIRECTION('ref_axis',(-1.,0.,0.));
#1364=DIRECTION('',(-1.,0.,0.));
#1365=DIRECTION('',(-1.,0.,0.));
#1366=DIRECTION('',(0.,1.,0.));
#1367=DIRECTION('center_axis',(-1.,0.,-1.51394048812521E-16));
#1368=DIRECTION('ref_axis',(-1.51394048812521E-16,0.,1.));
#1369=DIRECTION('',(-1.51394048812521E-16,0.,1.));
#1370=DIRECTION('',(-1.51394048812521E-16,0.,1.));
#1371=DIRECTION('',(0.,1.,0.));
#1372=DIRECTION('center_axis',(0.,0.,-1.));
#1373=DIRECTION('ref_axis',(-1.,0.,0.));
#1374=DIRECTION('',(-1.,0.,0.));
#1375=DIRECTION('',(-1.,0.,0.));
#1376=DIRECTION('',(0.,1.,0.));
#1377=DIRECTION('center_axis',(1.,0.,0.));
#1378=DIRECTION('ref_axis',(0.,0.,-1.));
#1379=DIRECTION('',(0.,0.,-1.));
#1380=DIRECTION('',(0.,0.,-1.));
#1381=DIRECTION('',(0.,1.,0.));
#1382=DIRECTION('center_axis',(0.,0.,1.));
#1383=DIRECTION('ref_axis',(1.,0.,0.));
#1384=DIRECTION('',(1.,0.,0.));
#1385=DIRECTION('',(1.,0.,0.));
#1386=DIRECTION('',(0.,1.,0.));
#1387=DIRECTION('center_axis',(-1.,0.,-1.51394048812521E-16));
#1388=DIRECTION('ref_axis',(-1.51394048812521E-16,0.,1.));
#1389=DIRECTION('',(-1.51394048812521E-16,0.,1.));
#1390=DIRECTION('',(-1.51394048812521E-16,0.,1.));
#1391=DIRECTION('',(0.,1.,0.));
#1392=DIRECTION('center_axis',(0.,0.,1.));
#1393=DIRECTION('ref_axis',(1.,0.,0.));
#1394=DIRECTION('',(1.,0.,0.));
#1395=DIRECTION('',(1.,0.,0.));
#1396=DIRECTION('',(0.,1.,0.));
#1397=DIRECTION('center_axis',(1.,0.,0.));
#1398=DIRECTION('ref_axis',(0.,0.,-1.));
#1399=DIRECTION('',(0.,0.,-1.));
#1400=DIRECTION('',(0.,0.,-1.));
#1401=DIRECTION('',(0.,1.,0.));
#1402=DIRECTION('center_axis',(0.,0.,1.));
#1403=DIRECTION('ref_axis',(1.,0.,0.));
#1404=DIRECTION('',(1.,0.,0.));
#1405=DIRECTION('',(1.,0.,0.));
#1406=DIRECTION('',(0.,1.,0.));
#1407=DIRECTION('center_axis',(-1.,0.,0.));
#1408=DIRECTION('ref_axis',(0.,0.,1.));
#1409=DIRECTION('',(0.,0.,1.));
#1410=DIRECTION('',(0.,0.,1.));
#1411=DIRECTION('center_axis',(0.,1.,0.));
#1412=DIRECTION('ref_axis',(0.,0.,1.));
#1413=DIRECTION('center_axis',(0.,1.,0.));
#1414=DIRECTION('ref_axis',(1.,0.,0.));
#1415=CARTESIAN_POINT('',(0.,0.,0.));
#1416=CARTESIAN_POINT('Origin',(-9.4,14.75,6.5));
#1417=CARTESIAN_POINT('',(-7.77519231907281,14.5,7.));
#1418=CARTESIAN_POINT('',(-8.30912878853643,15.,7.));
#1419=CARTESIAN_POINT('Ctrl Pts',(-7.77519231907281,14.5,7.));
#1420=CARTESIAN_POINT('Ctrl Pts',(-8.08818955978666,14.7991531298945,7.));
#1421=CARTESIAN_POINT('Ctrl Pts',(-8.30912878853643,15.,7.));
#1422=CARTESIAN_POINT('',(-10.4908712114636,15.,7.));
#1423=CARTESIAN_POINT('Origin',(-9.4,15.,6.5));
#1424=CARTESIAN_POINT('',(-11.0248076809272,14.5,7.));
#1425=CARTESIAN_POINT('Ctrl Pts',(-10.4908712114636,15.,7.));
#1426=CARTESIAN_POINT('Ctrl Pts',(-10.7118104402053,14.7991531299024,7.));
#1427=CARTESIAN_POINT('Ctrl Pts',(-11.0248076809272,14.5,7.));
#1428=CARTESIAN_POINT('Origin',(-9.4,14.5,6.5));
#1429=CARTESIAN_POINT('Origin',(-9.4,15.,7.6));
#1430=CARTESIAN_POINT('',(-6.13048604244848,15.,7.));
#1431=CARTESIAN_POINT('Origin',(-9.4,14.75,6.5));
#1432=CARTESIAN_POINT('',(-11.0248076809272,14.5,6.));
#1433=CARTESIAN_POINT('',(-10.4908712114636,15.,6.));
#1434=CARTESIAN_POINT('Ctrl Pts',(-11.0248076809272,14.5,6.));
#1435=CARTESIAN_POINT('Ctrl Pts',(-10.7118104402134,14.7991531298945,6.));
#1436=CARTESIAN_POINT('Ctrl Pts',(-10.4908712114636,15.,6.));
#1437=CARTESIAN_POINT('',(-8.30912878853643,15.,6.));
#1438=CARTESIAN_POINT('Origin',(-9.4,15.,6.5));
#1439=CARTESIAN_POINT('',(-7.77519231907281,14.5,6.));
#1440=CARTESIAN_POINT('Ctrl Pts',(-8.30912878853643,15.,6.));
#1441=CARTESIAN_POINT('Ctrl Pts',(-8.08818955979469,14.7991531299024,6.));
#1442=CARTESIAN_POINT('Ctrl Pts',(-7.77519231907281,14.5,6.));
#1443=CARTESIAN_POINT('Origin',(-9.4,14.5,6.5));
#1444=CARTESIAN_POINT('Origin',(-9.4,15.,5.4));
#1445=CARTESIAN_POINT('',(-12.6695139575515,15.,6.));
#1446=CARTESIAN_POINT('Origin',(-9.4,14.75,-6.5));
#1447=CARTESIAN_POINT('',(-11.0248076809272,14.5,-7.));
#1448=CARTESIAN_POINT('',(-10.4908712114636,15.,-7.));
#1449=CARTESIAN_POINT('Ctrl Pts',(-11.0248076809272,14.5,-7.));
#1450=CARTESIAN_POINT('Ctrl Pts',(-10.7118104402133,14.7991531298945,-7.));
#1451=CARTESIAN_POINT('Ctrl Pts',(-10.4908712114636,15.,-7.));
#1452=CARTESIAN_POINT('',(-8.30912878853643,15.,-7.));
#1453=CARTESIAN_POINT('Origin',(-9.4,15.,-6.5));
#1454=CARTESIAN_POINT('',(-7.77519231907281,14.5,-7.));
#1455=CARTESIAN_POINT('Ctrl Pts',(-8.30912878853643,15.,-7.));
#1456=CARTESIAN_POINT('Ctrl Pts',(-8.08818955979471,14.7991531299024,-7.));
#1457=CARTESIAN_POINT('Ctrl Pts',(-7.77519231907281,14.5,-7.));
#1458=CARTESIAN_POINT('Origin',(-9.4,14.5,-6.5));
#1459=CARTESIAN_POINT('Origin',(-9.4,15.,-7.6));
#1460=CARTESIAN_POINT('',(-12.5595100315049,15.,-7.));
#1461=CARTESIAN_POINT('Origin',(-9.4,14.75,-6.5));
#1462=CARTESIAN_POINT('',(-7.77519231907281,14.5,-6.));
#1463=CARTESIAN_POINT('',(-8.30912878853643,15.,-6.));
#1464=CARTESIAN_POINT('Ctrl Pts',(-7.77519231907281,14.5,-6.));
#1465=CARTESIAN_POINT('Ctrl Pts',(-8.08818955978664,14.7991531298945,-6.));
#1466=CARTESIAN_POINT('Ctrl Pts',(-8.30912878853643,15.,-6.));
#1467=CARTESIAN_POINT('',(-10.4908712114636,15.,-6.));
#1468=CARTESIAN_POINT('Origin',(-9.4,15.,-6.5));
#1469=CARTESIAN_POINT('',(-11.0248076809272,14.5,-6.));
#1470=CARTESIAN_POINT('Ctrl Pts',(-10.4908712114636,15.,-6.));
#1471=CARTESIAN_POINT('Ctrl Pts',(-10.7118104402053,14.7991531299023,-6.));
#1472=CARTESIAN_POINT('Ctrl Pts',(-11.0248076809272,14.5,-6.));
#1473=CARTESIAN_POINT('Origin',(-9.4,14.5,-6.5));
#1474=CARTESIAN_POINT('Origin',(-9.4,15.,-5.4));
#1475=CARTESIAN_POINT('',(-6.24048996849506,15.,-6.));
#1476=CARTESIAN_POINT('Origin',(-18.6,7.4,-4.7));
#1477=CARTESIAN_POINT('',(-18.6,2.,-5.7));
#1478=CARTESIAN_POINT('',(-19.6,2.,-4.7));
#1479=CARTESIAN_POINT('Origin',(-18.6,2.,-4.7));
#1480=CARTESIAN_POINT('',(-19.6,2.8,-4.7));
#1481=CARTESIAN_POINT('',(-19.6,7.4,-4.7));
#1482=CARTESIAN_POINT('',(-18.6,2.8,-5.7));
#1483=CARTESIAN_POINT('Origin',(-18.6,2.8,-4.7));
#1484=CARTESIAN_POINT('',(-18.6,7.4,-5.7));
#1485=CARTESIAN_POINT('Origin',(-19.6,2.8,-9.25));
#1486=CARTESIAN_POINT('',(-19.6,2.,-3.9));
#1487=CARTESIAN_POINT('',(-19.6,2.,-9.25));
#1488=CARTESIAN_POINT('',(-19.6,2.8,-3.9));
#1489=CARTESIAN_POINT('',(-19.6,7.4,-3.9));
#1490=CARTESIAN_POINT('',(-19.6,2.8,-9.25));
#1491=CARTESIAN_POINT('Origin',(-19.6,2.,-9.25));
#1492=CARTESIAN_POINT('',(-14.4,2.,-5.7));
#1493=CARTESIAN_POINT('',(-17.,2.,-5.7));
#1494=CARTESIAN_POINT('',(-14.4,2.,-2.9));
#1495=CARTESIAN_POINT('',(-14.4,2.,-9.25));
#1496=CARTESIAN_POINT('',(-18.6,2.,-2.9));
#1497=CARTESIAN_POINT('',(-19.6,2.,-2.9));
#1498=CARTESIAN_POINT('Origin',(-18.6,2.,-3.9));
#1499=CARTESIAN_POINT('',(-18.2,2.,-3.55));
#1500=CARTESIAN_POINT('',(-17.3,2.,-3.55));
#1501=CARTESIAN_POINT('',(-18.45,2.,-3.55));
#1502=CARTESIAN_POINT('',(-17.3,2.,-5.05));
#1503=CARTESIAN_POINT('Origin',(-17.3,2.,-4.3));
#1504=CARTESIAN_POINT('',(-18.2,2.,-5.05));
#1505=CARTESIAN_POINT('',(-18.9,2.,-5.05));
#1506=CARTESIAN_POINT('Origin',(-18.2,2.,-4.3));
#1507=CARTESIAN_POINT('Origin',(-18.6,7.4,-3.9));
#1508=CARTESIAN_POINT('',(-18.6,2.8,-2.9));
#1509=CARTESIAN_POINT('Origin',(-18.6,2.8,-3.9));
#1510=CARTESIAN_POINT('',(-18.6,7.4,-2.9));
#1511=CARTESIAN_POINT('Origin',(-18.6,7.4,3.9));
#1512=CARTESIAN_POINT('',(-18.6,2.,2.9));
#1513=CARTESIAN_POINT('',(-19.6,2.,3.9));
#1514=CARTESIAN_POINT('Origin',(-18.6,2.,3.9));
#1515=CARTESIAN_POINT('',(-19.6,2.8,3.9));
#1516=CARTESIAN_POINT('',(-19.6,7.4,3.9));
#1517=CARTESIAN_POINT('',(-18.6,2.8,2.9));
#1518=CARTESIAN_POINT('Origin',(-18.6,2.8,3.9));
#1519=CARTESIAN_POINT('',(-18.6,7.4,2.9));
#1520=CARTESIAN_POINT('Origin',(-19.6,2.8,-9.25));
#1521=CARTESIAN_POINT('',(-19.6,2.,4.7));
#1522=CARTESIAN_POINT('',(-19.6,2.,-9.25));
#1523=CARTESIAN_POINT('',(-19.6,2.8,4.7));
#1524=CARTESIAN_POINT('',(-19.6,7.4,4.7));
#1525=CARTESIAN_POINT('',(-19.6,2.8,-9.25));
#1526=CARTESIAN_POINT('Origin',(-19.6,2.,-9.25));
#1527=CARTESIAN_POINT('',(-14.4,2.,2.9));
#1528=CARTESIAN_POINT('',(-17.,2.,2.9));
#1529=CARTESIAN_POINT('',(-14.4,2.,5.7));
#1530=CARTESIAN_POINT('',(-14.4,2.,-9.25));
#1531=CARTESIAN_POINT('',(-18.6,2.,5.7));
#1532=CARTESIAN_POINT('',(-19.6,2.,5.7));
#1533=CARTESIAN_POINT('Origin',(-18.6,2.,4.7));
#1534=CARTESIAN_POINT('',(-18.2,2.,5.05));
#1535=CARTESIAN_POINT('',(-17.3,2.,5.05));
#1536=CARTESIAN_POINT('',(-18.45,2.,5.05));
#1537=CARTESIAN_POINT('',(-17.3,2.,3.55));
#1538=CARTESIAN_POINT('Origin',(-17.3,2.,4.3));
#1539=CARTESIAN_POINT('',(-18.2,2.,3.55));
#1540=CARTESIAN_POINT('',(-18.9,2.,3.55));
#1541=CARTESIAN_POINT('Origin',(-18.2,2.,4.3));
#1542=CARTESIAN_POINT('Origin',(-18.6,7.4,4.7));
#1543=CARTESIAN_POINT('',(-18.6,2.8,5.7));
#1544=CARTESIAN_POINT('Origin',(-18.6,2.8,4.7));
#1545=CARTESIAN_POINT('',(-18.6,7.4,5.7));
#1546=CARTESIAN_POINT('Origin',(-14.4,12.,-5.7));
#1547=CARTESIAN_POINT('',(-14.4,2.8,-5.7));
#1548=CARTESIAN_POINT('',(-14.4,2.8,-5.7));
#1549=CARTESIAN_POINT('',(-14.4,12.,-5.7));
#1550=CARTESIAN_POINT('Origin',(-19.6,12.,5.7));
#1551=CARTESIAN_POINT('',(-14.4,2.8,5.7));
#1552=CARTESIAN_POINT('',(-14.4,12.,5.7));
#1553=CARTESIAN_POINT('',(-17.,2.8,5.7));
#1554=CARTESIAN_POINT('Origin',(-18.2,12.,3.55));
#1555=CARTESIAN_POINT('',(-18.2,2.8,3.55));
#1556=CARTESIAN_POINT('',(-17.3,2.8,3.55));
#1557=CARTESIAN_POINT('',(-16.3,2.8,3.55));
#1558=CARTESIAN_POINT('',(-18.2,12.,3.55));
#1559=CARTESIAN_POINT('',(-17.3,12.,3.55));
#1560=CARTESIAN_POINT('Origin',(-17.3,12.,4.3));
#1561=CARTESIAN_POINT('',(-17.3,2.8,5.05));
#1562=CARTESIAN_POINT('Origin',(-17.3,2.8,4.3));
#1563=CARTESIAN_POINT('',(-17.3,12.,5.05));
#1564=CARTESIAN_POINT('Origin',(-17.3,12.,5.05));
#1565=CARTESIAN_POINT('',(-18.2,2.8,5.05));
#1566=CARTESIAN_POINT('',(-15.85,2.8,5.05));
#1567=CARTESIAN_POINT('',(-18.2,12.,5.05));
#1568=CARTESIAN_POINT('Origin',(-18.2,12.,4.3));
#1569=CARTESIAN_POINT('Origin',(-18.2,2.8,4.3));
#1570=CARTESIAN_POINT('Origin',(-14.4,12.,2.9));
#1571=CARTESIAN_POINT('',(-14.4,2.8,2.9));
#1572=CARTESIAN_POINT('',(-14.4,2.8,2.9));
#1573=CARTESIAN_POINT('',(-14.4,12.,2.9));
#1574=CARTESIAN_POINT('Origin',(-19.6,12.,-2.9));
#1575=CARTESIAN_POINT('',(-14.4,2.8,-2.9));
#1576=CARTESIAN_POINT('',(-14.4,12.,-2.9));
#1577=CARTESIAN_POINT('',(-17.,2.8,-2.9));
#1578=CARTESIAN_POINT('Origin',(-18.2,12.,-5.05));
#1579=CARTESIAN_POINT('',(-18.2,2.8,-5.05));
#1580=CARTESIAN_POINT('',(-17.3,2.8,-5.05));
#1581=CARTESIAN_POINT('',(-16.3,2.8,-5.05));
#1582=CARTESIAN_POINT('',(-18.2,12.,-5.05));
#1583=CARTESIAN_POINT('',(-17.3,12.,-5.05));
#1584=CARTESIAN_POINT('Origin',(-17.3,12.,-4.3));
#1585=CARTESIAN_POINT('',(-17.3,2.8,-3.55));
#1586=CARTESIAN_POINT('Origin',(-17.3,2.8,-4.3));
#1587=CARTESIAN_POINT('',(-17.3,12.,-3.55));
#1588=CARTESIAN_POINT('Origin',(-17.3,12.,-3.55));
#1589=CARTESIAN_POINT('',(-18.2,2.8,-3.55));
#1590=CARTESIAN_POINT('',(-15.85,2.8,-3.55));
#1591=CARTESIAN_POINT('',(-18.2,12.,-3.55));
#1592=CARTESIAN_POINT('Origin',(-18.2,12.,-4.3));
#1593=CARTESIAN_POINT('Origin',(-18.2,2.8,-4.3));
#1594=CARTESIAN_POINT('Origin',(-14.4,0.,9.25));
#1595=CARTESIAN_POINT('',(-14.4,0.,9.25));
#1596=CARTESIAN_POINT('',(-14.4,12.,9.25));
#1597=CARTESIAN_POINT('',(-14.4,0.,9.25));
#1598=CARTESIAN_POINT('',(-5.2,0.,9.25));
#1599=CARTESIAN_POINT('',(-14.4,0.,9.25));
#1600=CARTESIAN_POINT('',(-5.2,12.,9.25));
#1601=CARTESIAN_POINT('',(-5.2,0.,9.25));
#1602=CARTESIAN_POINT('',(-14.4,12.,9.25));
#1603=CARTESIAN_POINT('Origin',(-14.4,0.,-9.25));
#1604=CARTESIAN_POINT('',(-14.4,0.,-9.25));
#1605=CARTESIAN_POINT('',(-14.4,12.,-9.25));
#1606=CARTESIAN_POINT('',(-14.4,0.,-9.25));
#1607=CARTESIAN_POINT('',(-14.4,0.,-9.25));
#1608=CARTESIAN_POINT('',(-14.4,12.,-9.25));
#1609=CARTESIAN_POINT('',(-14.4,2.8,-9.25));
#1610=CARTESIAN_POINT('',(-14.4,2.8,-9.25));
#1611=CARTESIAN_POINT('Origin',(-14.4,2.8,-9.25));
#1612=CARTESIAN_POINT('Origin',(-14.4,2.8,-9.25));
#1613=CARTESIAN_POINT('Origin',(-11.0248076809272,12.,-7.));
#1614=CARTESIAN_POINT('',(-11.0248076809272,12.,-7.));
#1615=CARTESIAN_POINT('',(-11.0248076809272,12.,-7.));
#1616=CARTESIAN_POINT('',(-7.77519231907281,12.,-7.));
#1617=CARTESIAN_POINT('',(-9.1124038404636,12.,-7.));
#1618=CARTESIAN_POINT('',(-7.77519231907281,12.,-7.));
#1619=CARTESIAN_POINT('Origin',(-9.4,12.,-6.5));
#1620=CARTESIAN_POINT('Origin',(-9.4,12.,-6.5));
#1621=CARTESIAN_POINT('Origin',(-7.77519231907281,12.,7.));
#1622=CARTESIAN_POINT('',(-7.77519231907281,12.,7.));
#1623=CARTESIAN_POINT('',(-7.77519231907281,12.,7.));
#1624=CARTESIAN_POINT('',(-11.0248076809272,12.,7.));
#1625=CARTESIAN_POINT('',(-7.48759615953641,12.,7.));
#1626=CARTESIAN_POINT('',(-11.0248076809272,12.,7.));
#1627=CARTESIAN_POINT('Origin',(-9.4,12.,6.5));
#1628=CARTESIAN_POINT('Origin',(-9.4,12.,6.5));
#1629=CARTESIAN_POINT('Origin',(-7.77519231907281,12.,-6.));
#1630=CARTESIAN_POINT('',(-7.77519231907281,12.,-6.));
#1631=CARTESIAN_POINT('',(-7.77519231907281,12.,-6.));
#1632=CARTESIAN_POINT('',(-11.0248076809272,12.,-6.));
#1633=CARTESIAN_POINT('',(-7.48759615953641,12.,-6.));
#1634=CARTESIAN_POINT('',(-11.0248076809272,12.,-6.));
#1635=CARTESIAN_POINT('Origin',(-9.4,12.,-6.5));
#1636=CARTESIAN_POINT('Origin',(-9.4,12.,-6.5));
#1637=CARTESIAN_POINT('Origin',(-11.0248076809272,12.,6.));
#1638=CARTESIAN_POINT('',(-11.0248076809272,12.,6.));
#1639=CARTESIAN_POINT('',(-11.0248076809272,12.,6.));
#1640=CARTESIAN_POINT('',(-7.77519231907281,12.,6.));
#1641=CARTESIAN_POINT('',(-9.1124038404636,12.,6.));
#1642=CARTESIAN_POINT('',(-7.77519231907281,12.,6.));
#1643=CARTESIAN_POINT('Origin',(-9.4,12.,6.5));
#1644=CARTESIAN_POINT('Origin',(-9.4,12.,6.5));
#1645=CARTESIAN_POINT('Origin',(-5.2,0.,-9.25));
#1646=CARTESIAN_POINT('',(-5.2,12.,-9.25));
#1647=CARTESIAN_POINT('',(0.,12.,-9.25));
#1648=CARTESIAN_POINT('',(-5.2,0.,-9.25));
#1649=CARTESIAN_POINT('',(-5.2,0.,-9.25));
#1650=CARTESIAN_POINT('',(0.,0.,-9.25));
#1651=CARTESIAN_POINT('Origin',(-5.2,0.,-10.5));
#1652=CARTESIAN_POINT('',(-5.2,0.,-10.5));
#1653=CARTESIAN_POINT('',(-5.2,0.,-10.5));
#1654=CARTESIAN_POINT('',(-5.2,12.,-10.5));
#1655=CARTESIAN_POINT('',(-5.2,12.,-10.5));
#1656=CARTESIAN_POINT('',(-5.2,0.,-10.5));
#1657=CARTESIAN_POINT('Origin',(-3.7,0.,-10.5));
#1658=CARTESIAN_POINT('',(-3.7,0.,-10.5));
#1659=CARTESIAN_POINT('',(-3.7,0.,-10.5));
#1660=CARTESIAN_POINT('',(-3.7,12.,-10.5));
#1661=CARTESIAN_POINT('',(-3.7,12.,-10.5));
#1662=CARTESIAN_POINT('',(-3.7,0.,-10.5));
#1663=CARTESIAN_POINT('Origin',(-3.7,0.,-9.25));
#1664=CARTESIAN_POINT('',(-3.7,0.,-9.25));
#1665=CARTESIAN_POINT('',(-3.7,0.,10.5));
#1666=CARTESIAN_POINT('',(-3.7,12.,-9.25));
#1667=CARTESIAN_POINT('',(-3.7,12.,10.5));
#1668=CARTESIAN_POINT('',(-3.7,0.,-9.25));
#1669=CARTESIAN_POINT('Origin',(-2.,0.,-9.25));
#1670=CARTESIAN_POINT('',(-2.,0.,-9.25));
#1671=CARTESIAN_POINT('',(0.,0.,-9.25));
#1672=CARTESIAN_POINT('',(-2.,12.,-9.25));
#1673=CARTESIAN_POINT('',(0.,12.,-9.25));
#1674=CARTESIAN_POINT('',(-2.,0.,-9.25));
#1675=CARTESIAN_POINT('Origin',(-2.,0.,-11.));
#1676=CARTESIAN_POINT('',(-2.,0.,-11.));
#1677=CARTESIAN_POINT('',(-2.,0.,-11.));
#1678=CARTESIAN_POINT('',(-2.,12.,-11.));
#1679=CARTESIAN_POINT('',(-2.,12.,-11.));
#1680=CARTESIAN_POINT('',(-2.,0.,-11.));
#1681=CARTESIAN_POINT('Origin',(0.,0.,-11.));
#1682=CARTESIAN_POINT('',(0.,0.,-11.));
#1683=CARTESIAN_POINT('',(0.,0.,-11.));
#1684=CARTESIAN_POINT('',(0.,12.,-11.));
#1685=CARTESIAN_POINT('',(0.,12.,-11.));
#1686=CARTESIAN_POINT('',(0.,0.,-11.));
#1687=CARTESIAN_POINT('Origin',(0.,0.,11.));
#1688=CARTESIAN_POINT('',(0.,0.,11.));
#1689=CARTESIAN_POINT('',(0.,0.,11.));
#1690=CARTESIAN_POINT('',(0.,12.,11.));
#1691=CARTESIAN_POINT('',(0.,12.,11.));
#1692=CARTESIAN_POINT('',(0.,0.,11.));
#1693=CARTESIAN_POINT('Origin',(-2.,0.,11.));
#1694=CARTESIAN_POINT('',(-2.,0.,11.));
#1695=CARTESIAN_POINT('',(-2.,0.,11.));
#1696=CARTESIAN_POINT('',(-2.,12.,11.));
#1697=CARTESIAN_POINT('',(-2.,12.,11.));
#1698=CARTESIAN_POINT('',(-2.,0.,11.));
#1699=CARTESIAN_POINT('Origin',(-2.,0.,9.25));
#1700=CARTESIAN_POINT('',(-2.,0.,9.25));
#1701=CARTESIAN_POINT('',(-2.,0.,-11.));
#1702=CARTESIAN_POINT('',(-2.,12.,9.25));
#1703=CARTESIAN_POINT('',(-2.,12.,-11.));
#1704=CARTESIAN_POINT('',(-2.,0.,9.25));
#1705=CARTESIAN_POINT('Origin',(-3.7,0.,9.25));
#1706=CARTESIAN_POINT('',(-3.7,0.,9.25));
#1707=CARTESIAN_POINT('',(-14.4,0.,9.25));
#1708=CARTESIAN_POINT('',(-3.7,12.,9.25));
#1709=CARTESIAN_POINT('',(-14.4,12.,9.25));
#1710=CARTESIAN_POINT('',(-3.7,0.,9.25));
#1711=CARTESIAN_POINT('Origin',(-3.7,0.,10.5));
#1712=CARTESIAN_POINT('',(-3.7,0.,10.5));
#1713=CARTESIAN_POINT('',(-3.7,0.,10.5));
#1714=CARTESIAN_POINT('',(-3.7,12.,10.5));
#1715=CARTESIAN_POINT('',(-3.7,12.,10.5));
#1716=CARTESIAN_POINT('',(-3.7,0.,10.5));
#1717=CARTESIAN_POINT('Origin',(-5.2,0.,10.5));
#1718=CARTESIAN_POINT('',(-5.2,0.,10.5));
#1719=CARTESIAN_POINT('',(-5.2,0.,10.5));
#1720=CARTESIAN_POINT('',(-5.2,12.,10.5));
#1721=CARTESIAN_POINT('',(-5.2,12.,10.5));
#1722=CARTESIAN_POINT('',(-5.2,0.,10.5));
#1723=CARTESIAN_POINT('Origin',(-5.2,0.,9.25));
#1724=CARTESIAN_POINT('',(-5.2,0.,-10.5));
#1725=CARTESIAN_POINT('',(-5.2,12.,-10.5));
#1726=CARTESIAN_POINT('Origin',(-7.2,12.,0.));
#1727=CARTESIAN_POINT('Origin',(-7.2,0.,0.));
#1728=UNCERTAINTY_MEASURE_WITH_UNIT(LENGTH_MEASURE(0.01),#1732,
'DISTANCE_ACCURACY_VALUE',
'Maximum model space distance between geometric entities at asserted c
onnectivities');
#1729=UNCERTAINTY_MEASURE_WITH_UNIT(LENGTH_MEASURE(0.01),#1732,
'DISTANCE_ACCURACY_VALUE',
'Maximum model space distance between geometric entities at asserted c
onnectivities');
#1730=(
GEOMETRIC_REPRESENTATION_CONTEXT(3)
GLOBAL_UNCERTAINTY_ASSIGNED_CONTEXT((#1728))
GLOBAL_UNIT_ASSIGNED_CONTEXT((#1732,#1734,#1735))
REPRESENTATION_CONTEXT('','3D')
);
#1731=(
GEOMETRIC_REPRESENTATION_CONTEXT(3)
GLOBAL_UNCERTAINTY_ASSIGNED_CONTEXT((#1729))
GLOBAL_UNIT_ASSIGNED_CONTEXT((#1732,#1734,#1735))
REPRESENTATION_CONTEXT('','3D')
);
#1732=(
LENGTH_UNIT()
NAMED_UNIT(*)
SI_UNIT(.MILLI.,.METRE.)
);
#1733=(
LENGTH_UNIT()
NAMED_UNIT(*)
SI_UNIT($,.METRE.)
);
#1734=(
NAMED_UNIT(*)
PLANE_ANGLE_UNIT()
SI_UNIT($,.RADIAN.)
);
#1735=(
NAMED_UNIT(*)
SI_UNIT($,.STERADIAN.)
SOLID_ANGLE_UNIT()
);
#1736=SHAPE_DEFINITION_REPRESENTATION(#1737,#1738);
#1737=PRODUCT_DEFINITION_SHAPE('',$,#1740);
#1738=SHAPE_REPRESENTATION('',(#1052),#1730);
#1739=PRODUCT_DEFINITION_CONTEXT('part definition',#1744,'design');
#1740=PRODUCT_DEFINITION('Legion RT-C08-M2-BJ','Legion RT-C08-M2-BJ v1',
#1741,#1739);
#1741=PRODUCT_DEFINITION_FORMATION('',$,#1746);
#1742=PRODUCT_RELATED_PRODUCT_CATEGORY('Legion RT-C08-M2-BJ v1',
'Legion RT-C08-M2-BJ v1',(#1746));
#1743=APPLICATION_PROTOCOL_DEFINITION('international standard',
'automotive_design',2009,#1744);
#1744=APPLICATION_CONTEXT(
'Core Data for Automotive Mechanical Design Process');
#1745=PRODUCT_CONTEXT('part definition',#1744,'mechanical');
#1746=PRODUCT('Legion RT-C08-M2-BJ','Legion RT-C08-M2-BJ v1',$,(#1745));
#1747=PRESENTATION_STYLE_ASSIGNMENT((#1748));
#1748=SURFACE_STYLE_USAGE(.BOTH.,#1749);
#1749=SURFACE_SIDE_STYLE('',(#1750));
#1750=SURFACE_STYLE_FILL_AREA(#1751);
#1751=FILL_AREA_STYLE('Steel - Satin',(#1752));
#1752=FILL_AREA_STYLE_COLOUR('Steel - Satin',#1753);
#1753=COLOUR_RGB('Steel - Satin',0.627450980392157,0.627450980392157,0.627450980392157);
ENDSEC;
END-ISO-10303-21;
