ISO-10303-21;
HEADER;
/* Generated by software containing ST-Developer
 * from STEP Tools, Inc. (www.steptools.com) 
 */

FILE_DESCRIPTION(
/* description */ (''),
/* implementation_level */ '2;1');

FILE_NAME(
/* name */ 'Sumida C2DEP1010NP-100MC-120 v1.step',
/* time_stamp */ '2026-09-19T12:09:52+02:00',
/* author */ (''),
/* organization */ (''),
/* preprocessor_version */ 'ST-DEVELOPER v20.1',
/* originating_system */ 'Autodesk Translation Framework v15.8.0.0',
/* authorisation */ '');

FILE_SCHEMA (('AUTOMOTIVE_DESIGN { 1 0 10303 214 3 1 1 }'));
ENDSEC;

DATA;
#10=MECHANICAL_DESIGN_GEOMETRIC_PRESENTATION_REPRESENTATION('',(#13),#975);
#11=SHAPE_REPRESENTATION_RELATIONSHIP('SRR','None',#982,#12);
#12=ADVANCED_BREP_SHAPE_REPRESENTATION('',(#14),#974);
#13=STYLED_ITEM('',(#991),#14);
#14=MANIFOLD_SOLID_BREP('Body1',#611);
#15=FACE_OUTER_BOUND('',#45,.T.);
#16=FACE_OUTER_BOUND('',#46,.T.);
#17=FACE_OUTER_BOUND('',#47,.T.);
#18=FACE_OUTER_BOUND('',#48,.T.);
#19=FACE_OUTER_BOUND('',#49,.T.);
#20=FACE_OUTER_BOUND('',#50,.T.);
#21=FACE_OUTER_BOUND('',#51,.T.);
#22=FACE_OUTER_BOUND('',#52,.T.);
#23=FACE_OUTER_BOUND('',#53,.T.);
#24=FACE_OUTER_BOUND('',#54,.T.);
#25=FACE_OUTER_BOUND('',#55,.T.);
#26=FACE_OUTER_BOUND('',#56,.T.);
#27=FACE_OUTER_BOUND('',#57,.T.);
#28=FACE_OUTER_BOUND('',#58,.T.);
#29=FACE_OUTER_BOUND('',#59,.T.);
#30=FACE_OUTER_BOUND('',#60,.T.);
#31=FACE_OUTER_BOUND('',#61,.T.);
#32=FACE_OUTER_BOUND('',#62,.T.);
#33=FACE_OUTER_BOUND('',#63,.T.);
#34=FACE_OUTER_BOUND('',#64,.T.);
#35=FACE_OUTER_BOUND('',#65,.T.);
#36=FACE_OUTER_BOUND('',#66,.T.);
#37=FACE_OUTER_BOUND('',#67,.T.);
#38=FACE_OUTER_BOUND('',#68,.T.);
#39=FACE_OUTER_BOUND('',#69,.T.);
#40=FACE_OUTER_BOUND('',#70,.T.);
#41=FACE_OUTER_BOUND('',#71,.T.);
#42=FACE_OUTER_BOUND('',#72,.T.);
#43=FACE_OUTER_BOUND('',#73,.T.);
#44=FACE_OUTER_BOUND('',#74,.T.);
#45=EDGE_LOOP('',(#383,#384,#385,#386));
#46=EDGE_LOOP('',(#387,#388,#389,#390));
#47=EDGE_LOOP('',(#391,#392,#393,#394));
#48=EDGE_LOOP('',(#395,#396,#397,#398));
#49=EDGE_LOOP('',(#399,#400,#401,#402,#403,#404,#405,#406,#407,#408,#409,
#410,#411,#412));
#50=EDGE_LOOP('',(#413,#414,#415,#416,#417,#418));
#51=EDGE_LOOP('',(#419,#420,#421,#422));
#52=EDGE_LOOP('',(#423,#424,#425,#426));
#53=EDGE_LOOP('',(#427,#428,#429,#430));
#54=EDGE_LOOP('',(#431,#432,#433,#434,#435,#436));
#55=EDGE_LOOP('',(#437,#438,#439,#440,#441,#442,#443,#444,#445,#446,#447,
#448,#449,#450,#451,#452,#453,#454,#455,#456));
#56=EDGE_LOOP('',(#457,#458,#459,#460,#461,#462));
#57=EDGE_LOOP('',(#463,#464,#465,#466));
#58=EDGE_LOOP('',(#467,#468,#469,#470));
#59=EDGE_LOOP('',(#471,#472,#473,#474,#475,#476));
#60=EDGE_LOOP('',(#477,#478,#479,#480));
#61=EDGE_LOOP('',(#481,#482,#483,#484));
#62=EDGE_LOOP('',(#485,#486,#487,#488));
#63=EDGE_LOOP('',(#489,#490,#491,#492));
#64=EDGE_LOOP('',(#493,#494,#495,#496));
#65=EDGE_LOOP('',(#497,#498,#499,#500));
#66=EDGE_LOOP('',(#501,#502,#503,#504,#505,#506));
#67=EDGE_LOOP('',(#507,#508,#509,#510));
#68=EDGE_LOOP('',(#511,#512,#513,#514));
#69=EDGE_LOOP('',(#515,#516,#517,#518));
#70=EDGE_LOOP('',(#519,#520,#521,#522));
#71=EDGE_LOOP('',(#523,#524,#525,#526,#527,#528));
#72=EDGE_LOOP('',(#529,#530,#531,#532));
#73=EDGE_LOOP('',(#533,#534,#535,#536));
#74=EDGE_LOOP('',(#537,#538,#539,#540,#541,#542,#543,#544,#545,#546,#547,
#548,#549,#550));
#75=LINE('',#805,#159);
#76=LINE('',#807,#160);
#77=LINE('',#809,#161);
#78=LINE('',#810,#162);
#79=LINE('',#814,#163);
#80=LINE('',#816,#164);
#81=LINE('',#818,#165);
#82=LINE('',#819,#166);
#83=LINE('',#822,#167);
#84=LINE('',#824,#168);
#85=LINE('',#825,#169);
#86=LINE('',#828,#170);
#87=LINE('',#830,#171);
#88=LINE('',#831,#172);
#89=LINE('',#834,#173);
#90=LINE('',#836,#174);
#91=LINE('',#838,#175);
#92=LINE('',#840,#176);
#93=LINE('',#842,#177);
#94=LINE('',#844,#178);
#95=LINE('',#846,#179);
#96=LINE('',#848,#180);
#97=LINE('',#850,#181);
#98=LINE('',#852,#182);
#99=LINE('',#853,#183);
#100=LINE('',#857,#184);
#101=LINE('',#858,#185);
#102=LINE('',#860,#186);
#103=LINE('',#862,#187);
#104=LINE('',#863,#188);
#105=LINE('',#867,#189);
#106=LINE('',#868,#190);
#107=LINE('',#869,#191);
#108=LINE('',#871,#192);
#109=LINE('',#874,#193);
#110=LINE('',#875,#194);
#111=LINE('',#878,#195);
#112=LINE('',#879,#196);
#113=LINE('',#882,#197);
#114=LINE('',#883,#198);
#115=LINE('',#885,#199);
#116=LINE('',#887,#200);
#117=LINE('',#888,#201);
#118=LINE('',#890,#202);
#119=LINE('',#892,#203);
#120=LINE('',#893,#204);
#121=LINE('',#895,#205);
#122=LINE('',#897,#206);
#123=LINE('',#899,#207);
#124=LINE('',#901,#208);
#125=LINE('',#903,#209);
#126=LINE('',#904,#210);
#127=LINE('',#907,#211);
#128=LINE('',#909,#212);
#129=LINE('',#911,#213);
#130=LINE('',#912,#214);
#131=LINE('',#915,#215);
#132=LINE('',#916,#216);
#133=LINE('',#919,#217);
#134=LINE('',#920,#218);
#135=LINE('',#923,#219);
#136=LINE('',#924,#220);
#137=LINE('',#926,#221);
#138=LINE('',#930,#222);
#139=LINE('',#932,#223);
#140=LINE('',#933,#224);
#141=LINE('',#936,#225);
#142=LINE('',#938,#226);
#143=LINE('',#939,#227);
#144=LINE('',#941,#228);
#145=LINE('',#943,#229);
#146=LINE('',#946,#230);
#147=LINE('',#948,#231);
#148=LINE('',#950,#232);
#149=LINE('',#951,#233);
#150=LINE('',#954,#234);
#151=LINE('',#955,#235);
#152=LINE('',#959,#236);
#153=LINE('',#960,#237);
#154=LINE('',#961,#238);
#155=LINE('',#963,#239);
#156=LINE('',#965,#240);
#157=LINE('',#968,#241);
#158=LINE('',#970,#242);
#159=VECTOR('',#659,10.);
#160=VECTOR('',#660,10.);
#161=VECTOR('',#661,10.);
#162=VECTOR('',#662,10.);
#163=VECTOR('',#665,10.);
#164=VECTOR('',#666,10.);
#165=VECTOR('',#667,10.);
#166=VECTOR('',#668,10.);
#167=VECTOR('',#671,10.);
#168=VECTOR('',#672,10.);
#169=VECTOR('',#673,10.);
#170=VECTOR('',#676,10.);
#171=VECTOR('',#677,10.);
#172=VECTOR('',#678,10.);
#173=VECTOR('',#681,10.);
#174=VECTOR('',#682,10.);
#175=VECTOR('',#683,10.);
#176=VECTOR('',#684,10.);
#177=VECTOR('',#685,10.);
#178=VECTOR('',#686,10.);
#179=VECTOR('',#687,10.);
#180=VECTOR('',#688,10.);
#181=VECTOR('',#689,10.);
#182=VECTOR('',#690,10.);
#183=VECTOR('',#691,10.);
#184=VECTOR('',#694,10.);
#185=VECTOR('',#695,10.);
#186=VECTOR('',#696,10.);
#187=VECTOR('',#697,10.);
#188=VECTOR('',#698,10.);
#189=VECTOR('',#701,10.);
#190=VECTOR('',#702,10.);
#191=VECTOR('',#703,10.);
#192=VECTOR('',#706,10.);
#193=VECTOR('',#709,10.);
#194=VECTOR('',#710,10.);
#195=VECTOR('',#713,10.);
#196=VECTOR('',#714,10.);
#197=VECTOR('',#717,10.);
#198=VECTOR('',#718,10.);
#199=VECTOR('',#719,10.);
#200=VECTOR('',#720,10.);
#201=VECTOR('',#721,10.);
#202=VECTOR('',#722,10.);
#203=VECTOR('',#723,10.);
#204=VECTOR('',#724,10.);
#205=VECTOR('',#725,10.);
#206=VECTOR('',#726,10.);
#207=VECTOR('',#727,10.);
#208=VECTOR('',#728,10.);
#209=VECTOR('',#729,10.);
#210=VECTOR('',#730,10.);
#211=VECTOR('',#733,10.);
#212=VECTOR('',#734,10.);
#213=VECTOR('',#735,10.);
#214=VECTOR('',#736,10.);
#215=VECTOR('',#739,10.);
#216=VECTOR('',#740,10.);
#217=VECTOR('',#743,10.);
#218=VECTOR('',#744,10.);
#219=VECTOR('',#747,10.);
#220=VECTOR('',#748,10.);
#221=VECTOR('',#751,10.);
#222=VECTOR('',#756,10.);
#223=VECTOR('',#757,10.);
#224=VECTOR('',#758,10.);
#225=VECTOR('',#761,10.);
#226=VECTOR('',#762,10.);
#227=VECTOR('',#763,10.);
#228=VECTOR('',#766,10.);
#229=VECTOR('',#769,10.);
#230=VECTOR('',#772,10.);
#231=VECTOR('',#773,10.);
#232=VECTOR('',#774,10.);
#233=VECTOR('',#775,10.);
#234=VECTOR('',#778,10.);
#235=VECTOR('',#779,10.);
#236=VECTOR('',#782,10.);
#237=VECTOR('',#783,10.);
#238=VECTOR('',#784,10.);
#239=VECTOR('',#787,10.);
#240=VECTOR('',#790,10.);
#241=VECTOR('',#795,10.);
#242=VECTOR('',#798,10.);
#243=VERTEX_POINT('',#803);
#244=VERTEX_POINT('',#804);
#245=VERTEX_POINT('',#806);
#246=VERTEX_POINT('',#808);
#247=VERTEX_POINT('',#812);
#248=VERTEX_POINT('',#813);
#249=VERTEX_POINT('',#815);
#250=VERTEX_POINT('',#817);
#251=VERTEX_POINT('',#821);
#252=VERTEX_POINT('',#823);
#253=VERTEX_POINT('',#827);
#254=VERTEX_POINT('',#829);
#255=VERTEX_POINT('',#833);
#256=VERTEX_POINT('',#835);
#257=VERTEX_POINT('',#837);
#258=VERTEX_POINT('',#839);
#259=VERTEX_POINT('',#841);
#260=VERTEX_POINT('',#843);
#261=VERTEX_POINT('',#845);
#262=VERTEX_POINT('',#847);
#263=VERTEX_POINT('',#849);
#264=VERTEX_POINT('',#851);
#265=VERTEX_POINT('',#855);
#266=VERTEX_POINT('',#856);
#267=VERTEX_POINT('',#859);
#268=VERTEX_POINT('',#861);
#269=VERTEX_POINT('',#865);
#270=VERTEX_POINT('',#866);
#271=VERTEX_POINT('',#873);
#272=VERTEX_POINT('',#877);
#273=VERTEX_POINT('',#881);
#274=VERTEX_POINT('',#884);
#275=VERTEX_POINT('',#886);
#276=VERTEX_POINT('',#889);
#277=VERTEX_POINT('',#891);
#278=VERTEX_POINT('',#894);
#279=VERTEX_POINT('',#896);
#280=VERTEX_POINT('',#898);
#281=VERTEX_POINT('',#900);
#282=VERTEX_POINT('',#902);
#283=VERTEX_POINT('',#906);
#284=VERTEX_POINT('',#908);
#285=VERTEX_POINT('',#910);
#286=VERTEX_POINT('',#914);
#287=VERTEX_POINT('',#918);
#288=VERTEX_POINT('',#922);
#289=VERTEX_POINT('',#929);
#290=VERTEX_POINT('',#931);
#291=VERTEX_POINT('',#935);
#292=VERTEX_POINT('',#937);
#293=VERTEX_POINT('',#945);
#294=VERTEX_POINT('',#947);
#295=VERTEX_POINT('',#949);
#296=VERTEX_POINT('',#953);
#297=VERTEX_POINT('',#957);
#298=VERTEX_POINT('',#958);
#299=EDGE_CURVE('',#243,#244,#75,.T.);
#300=EDGE_CURVE('',#245,#244,#76,.T.);
#301=EDGE_CURVE('',#245,#246,#77,.T.);
#302=EDGE_CURVE('',#243,#246,#78,.T.);
#303=EDGE_CURVE('',#247,#248,#79,.T.);
#304=EDGE_CURVE('',#248,#249,#80,.T.);
#305=EDGE_CURVE('',#249,#250,#81,.T.);
#306=EDGE_CURVE('',#250,#247,#82,.T.);
#307=EDGE_CURVE('',#251,#243,#83,.T.);
#308=EDGE_CURVE('',#246,#252,#84,.T.);
#309=EDGE_CURVE('',#252,#251,#85,.T.);
#310=EDGE_CURVE('',#253,#245,#86,.T.);
#311=EDGE_CURVE('',#244,#254,#87,.T.);
#312=EDGE_CURVE('',#254,#253,#88,.T.);
#313=EDGE_CURVE('',#255,#253,#89,.T.);
#314=EDGE_CURVE('',#256,#255,#90,.T.);
#315=EDGE_CURVE('',#256,#257,#91,.T.);
#316=EDGE_CURVE('',#257,#258,#92,.T.);
#317=EDGE_CURVE('',#258,#259,#93,.T.);
#318=EDGE_CURVE('',#260,#259,#94,.T.);
#319=EDGE_CURVE('',#260,#261,#95,.T.);
#320=EDGE_CURVE('',#261,#262,#96,.T.);
#321=EDGE_CURVE('',#262,#263,#97,.T.);
#322=EDGE_CURVE('',#264,#263,#98,.T.);
#323=EDGE_CURVE('',#264,#252,#99,.T.);
#324=EDGE_CURVE('',#265,#266,#100,.T.);
#325=EDGE_CURVE('',#265,#249,#101,.T.);
#326=EDGE_CURVE('',#267,#248,#102,.T.);
#327=EDGE_CURVE('',#268,#267,#103,.T.);
#328=EDGE_CURVE('',#266,#268,#104,.T.);
#329=EDGE_CURVE('',#269,#270,#105,.T.);
#330=EDGE_CURVE('',#270,#265,#106,.T.);
#331=EDGE_CURVE('',#266,#269,#107,.T.);
#332=EDGE_CURVE('',#250,#270,#108,.T.);
#333=EDGE_CURVE('',#271,#268,#109,.T.);
#334=EDGE_CURVE('',#269,#271,#110,.T.);
#335=EDGE_CURVE('',#272,#247,#111,.T.);
#336=EDGE_CURVE('',#272,#271,#112,.T.);
#337=EDGE_CURVE('',#267,#273,#113,.T.);
#338=EDGE_CURVE('',#273,#264,#114,.T.);
#339=EDGE_CURVE('',#263,#274,#115,.T.);
#340=EDGE_CURVE('',#274,#275,#116,.T.);
#341=EDGE_CURVE('',#275,#260,#117,.T.);
#342=EDGE_CURVE('',#259,#276,#118,.T.);
#343=EDGE_CURVE('',#276,#277,#119,.T.);
#344=EDGE_CURVE('',#277,#256,#120,.T.);
#345=EDGE_CURVE('',#255,#278,#121,.T.);
#346=EDGE_CURVE('',#278,#279,#122,.T.);
#347=EDGE_CURVE('',#279,#280,#123,.T.);
#348=EDGE_CURVE('',#280,#281,#124,.T.);
#349=EDGE_CURVE('',#281,#282,#125,.T.);
#350=EDGE_CURVE('',#282,#272,#126,.T.);
#351=EDGE_CURVE('',#275,#283,#127,.T.);
#352=EDGE_CURVE('',#284,#283,#128,.T.);
#353=EDGE_CURVE('',#284,#285,#129,.T.);
#354=EDGE_CURVE('',#261,#285,#130,.T.);
#355=EDGE_CURVE('',#286,#274,#131,.T.);
#356=EDGE_CURVE('',#283,#286,#132,.T.);
#357=EDGE_CURVE('',#286,#287,#133,.T.);
#358=EDGE_CURVE('',#287,#284,#134,.T.);
#359=EDGE_CURVE('',#288,#262,#135,.T.);
#360=EDGE_CURVE('',#287,#288,#136,.T.);
#361=EDGE_CURVE('',#285,#288,#137,.T.);
#362=EDGE_CURVE('',#289,#281,#138,.T.);
#363=EDGE_CURVE('',#290,#289,#139,.T.);
#364=EDGE_CURVE('',#282,#290,#140,.T.);
#365=EDGE_CURVE('',#291,#290,#141,.T.);
#366=EDGE_CURVE('',#289,#292,#142,.T.);
#367=EDGE_CURVE('',#292,#291,#143,.T.);
#368=EDGE_CURVE('',#292,#280,#144,.T.);
#369=EDGE_CURVE('',#291,#279,#145,.T.);
#370=EDGE_CURVE('',#293,#258,#146,.T.);
#371=EDGE_CURVE('',#294,#293,#147,.T.);
#372=EDGE_CURVE('',#295,#294,#148,.T.);
#373=EDGE_CURVE('',#295,#276,#149,.T.);
#374=EDGE_CURVE('',#257,#296,#150,.T.);
#375=EDGE_CURVE('',#296,#293,#151,.T.);
#376=EDGE_CURVE('',#297,#298,#152,.T.);
#377=EDGE_CURVE('',#298,#295,#153,.T.);
#378=EDGE_CURVE('',#294,#297,#154,.T.);
#379=EDGE_CURVE('',#277,#298,#155,.T.);
#380=EDGE_CURVE('',#297,#296,#156,.T.);
#381=EDGE_CURVE('',#273,#251,#157,.T.);
#382=EDGE_CURVE('',#278,#254,#158,.T.);
#383=ORIENTED_EDGE('',*,*,#299,.T.);
#384=ORIENTED_EDGE('',*,*,#300,.F.);
#385=ORIENTED_EDGE('',*,*,#301,.T.);
#386=ORIENTED_EDGE('',*,*,#302,.F.);
#387=ORIENTED_EDGE('',*,*,#303,.T.);
#388=ORIENTED_EDGE('',*,*,#304,.T.);
#389=ORIENTED_EDGE('',*,*,#305,.T.);
#390=ORIENTED_EDGE('',*,*,#306,.T.);
#391=ORIENTED_EDGE('',*,*,#307,.T.);
#392=ORIENTED_EDGE('',*,*,#302,.T.);
#393=ORIENTED_EDGE('',*,*,#308,.T.);
#394=ORIENTED_EDGE('',*,*,#309,.T.);
#395=ORIENTED_EDGE('',*,*,#310,.T.);
#396=ORIENTED_EDGE('',*,*,#300,.T.);
#397=ORIENTED_EDGE('',*,*,#311,.T.);
#398=ORIENTED_EDGE('',*,*,#312,.T.);
#399=ORIENTED_EDGE('',*,*,#310,.F.);
#400=ORIENTED_EDGE('',*,*,#313,.F.);
#401=ORIENTED_EDGE('',*,*,#314,.F.);
#402=ORIENTED_EDGE('',*,*,#315,.T.);
#403=ORIENTED_EDGE('',*,*,#316,.T.);
#404=ORIENTED_EDGE('',*,*,#317,.T.);
#405=ORIENTED_EDGE('',*,*,#318,.F.);
#406=ORIENTED_EDGE('',*,*,#319,.T.);
#407=ORIENTED_EDGE('',*,*,#320,.T.);
#408=ORIENTED_EDGE('',*,*,#321,.T.);
#409=ORIENTED_EDGE('',*,*,#322,.F.);
#410=ORIENTED_EDGE('',*,*,#323,.T.);
#411=ORIENTED_EDGE('',*,*,#308,.F.);
#412=ORIENTED_EDGE('',*,*,#301,.F.);
#413=ORIENTED_EDGE('',*,*,#324,.F.);
#414=ORIENTED_EDGE('',*,*,#325,.T.);
#415=ORIENTED_EDGE('',*,*,#304,.F.);
#416=ORIENTED_EDGE('',*,*,#326,.F.);
#417=ORIENTED_EDGE('',*,*,#327,.F.);
#418=ORIENTED_EDGE('',*,*,#328,.F.);
#419=ORIENTED_EDGE('',*,*,#329,.T.);
#420=ORIENTED_EDGE('',*,*,#330,.T.);
#421=ORIENTED_EDGE('',*,*,#324,.T.);
#422=ORIENTED_EDGE('',*,*,#331,.T.);
#423=ORIENTED_EDGE('',*,*,#332,.F.);
#424=ORIENTED_EDGE('',*,*,#305,.F.);
#425=ORIENTED_EDGE('',*,*,#325,.F.);
#426=ORIENTED_EDGE('',*,*,#330,.F.);
#427=ORIENTED_EDGE('',*,*,#333,.F.);
#428=ORIENTED_EDGE('',*,*,#334,.F.);
#429=ORIENTED_EDGE('',*,*,#331,.F.);
#430=ORIENTED_EDGE('',*,*,#328,.T.);
#431=ORIENTED_EDGE('',*,*,#335,.T.);
#432=ORIENTED_EDGE('',*,*,#306,.F.);
#433=ORIENTED_EDGE('',*,*,#332,.T.);
#434=ORIENTED_EDGE('',*,*,#329,.F.);
#435=ORIENTED_EDGE('',*,*,#334,.T.);
#436=ORIENTED_EDGE('',*,*,#336,.F.);
#437=ORIENTED_EDGE('',*,*,#336,.T.);
#438=ORIENTED_EDGE('',*,*,#333,.T.);
#439=ORIENTED_EDGE('',*,*,#327,.T.);
#440=ORIENTED_EDGE('',*,*,#337,.T.);
#441=ORIENTED_EDGE('',*,*,#338,.T.);
#442=ORIENTED_EDGE('',*,*,#322,.T.);
#443=ORIENTED_EDGE('',*,*,#339,.T.);
#444=ORIENTED_EDGE('',*,*,#340,.T.);
#445=ORIENTED_EDGE('',*,*,#341,.T.);
#446=ORIENTED_EDGE('',*,*,#318,.T.);
#447=ORIENTED_EDGE('',*,*,#342,.T.);
#448=ORIENTED_EDGE('',*,*,#343,.T.);
#449=ORIENTED_EDGE('',*,*,#344,.T.);
#450=ORIENTED_EDGE('',*,*,#314,.T.);
#451=ORIENTED_EDGE('',*,*,#345,.T.);
#452=ORIENTED_EDGE('',*,*,#346,.T.);
#453=ORIENTED_EDGE('',*,*,#347,.T.);
#454=ORIENTED_EDGE('',*,*,#348,.T.);
#455=ORIENTED_EDGE('',*,*,#349,.T.);
#456=ORIENTED_EDGE('',*,*,#350,.T.);
#457=ORIENTED_EDGE('',*,*,#319,.F.);
#458=ORIENTED_EDGE('',*,*,#341,.F.);
#459=ORIENTED_EDGE('',*,*,#351,.T.);
#460=ORIENTED_EDGE('',*,*,#352,.F.);
#461=ORIENTED_EDGE('',*,*,#353,.T.);
#462=ORIENTED_EDGE('',*,*,#354,.F.);
#463=ORIENTED_EDGE('',*,*,#340,.F.);
#464=ORIENTED_EDGE('',*,*,#355,.F.);
#465=ORIENTED_EDGE('',*,*,#356,.F.);
#466=ORIENTED_EDGE('',*,*,#351,.F.);
#467=ORIENTED_EDGE('',*,*,#352,.T.);
#468=ORIENTED_EDGE('',*,*,#356,.T.);
#469=ORIENTED_EDGE('',*,*,#357,.T.);
#470=ORIENTED_EDGE('',*,*,#358,.T.);
#471=ORIENTED_EDGE('',*,*,#321,.F.);
#472=ORIENTED_EDGE('',*,*,#359,.F.);
#473=ORIENTED_EDGE('',*,*,#360,.F.);
#474=ORIENTED_EDGE('',*,*,#357,.F.);
#475=ORIENTED_EDGE('',*,*,#355,.T.);
#476=ORIENTED_EDGE('',*,*,#339,.F.);
#477=ORIENTED_EDGE('',*,*,#360,.T.);
#478=ORIENTED_EDGE('',*,*,#361,.F.);
#479=ORIENTED_EDGE('',*,*,#353,.F.);
#480=ORIENTED_EDGE('',*,*,#358,.F.);
#481=ORIENTED_EDGE('',*,*,#320,.F.);
#482=ORIENTED_EDGE('',*,*,#354,.T.);
#483=ORIENTED_EDGE('',*,*,#361,.T.);
#484=ORIENTED_EDGE('',*,*,#359,.T.);
#485=ORIENTED_EDGE('',*,*,#349,.F.);
#486=ORIENTED_EDGE('',*,*,#362,.F.);
#487=ORIENTED_EDGE('',*,*,#363,.F.);
#488=ORIENTED_EDGE('',*,*,#364,.F.);
#489=ORIENTED_EDGE('',*,*,#365,.T.);
#490=ORIENTED_EDGE('',*,*,#363,.T.);
#491=ORIENTED_EDGE('',*,*,#366,.T.);
#492=ORIENTED_EDGE('',*,*,#367,.T.);
#493=ORIENTED_EDGE('',*,*,#348,.F.);
#494=ORIENTED_EDGE('',*,*,#368,.F.);
#495=ORIENTED_EDGE('',*,*,#366,.F.);
#496=ORIENTED_EDGE('',*,*,#362,.T.);
#497=ORIENTED_EDGE('',*,*,#347,.F.);
#498=ORIENTED_EDGE('',*,*,#369,.F.);
#499=ORIENTED_EDGE('',*,*,#367,.F.);
#500=ORIENTED_EDGE('',*,*,#368,.T.);
#501=ORIENTED_EDGE('',*,*,#342,.F.);
#502=ORIENTED_EDGE('',*,*,#317,.F.);
#503=ORIENTED_EDGE('',*,*,#370,.F.);
#504=ORIENTED_EDGE('',*,*,#371,.F.);
#505=ORIENTED_EDGE('',*,*,#372,.F.);
#506=ORIENTED_EDGE('',*,*,#373,.T.);
#507=ORIENTED_EDGE('',*,*,#316,.F.);
#508=ORIENTED_EDGE('',*,*,#374,.T.);
#509=ORIENTED_EDGE('',*,*,#375,.T.);
#510=ORIENTED_EDGE('',*,*,#370,.T.);
#511=ORIENTED_EDGE('',*,*,#376,.T.);
#512=ORIENTED_EDGE('',*,*,#377,.T.);
#513=ORIENTED_EDGE('',*,*,#372,.T.);
#514=ORIENTED_EDGE('',*,*,#378,.T.);
#515=ORIENTED_EDGE('',*,*,#343,.F.);
#516=ORIENTED_EDGE('',*,*,#373,.F.);
#517=ORIENTED_EDGE('',*,*,#377,.F.);
#518=ORIENTED_EDGE('',*,*,#379,.F.);
#519=ORIENTED_EDGE('',*,*,#371,.T.);
#520=ORIENTED_EDGE('',*,*,#375,.F.);
#521=ORIENTED_EDGE('',*,*,#380,.F.);
#522=ORIENTED_EDGE('',*,*,#378,.F.);
#523=ORIENTED_EDGE('',*,*,#344,.F.);
#524=ORIENTED_EDGE('',*,*,#379,.T.);
#525=ORIENTED_EDGE('',*,*,#376,.F.);
#526=ORIENTED_EDGE('',*,*,#380,.T.);
#527=ORIENTED_EDGE('',*,*,#374,.F.);
#528=ORIENTED_EDGE('',*,*,#315,.F.);
#529=ORIENTED_EDGE('',*,*,#309,.F.);
#530=ORIENTED_EDGE('',*,*,#323,.F.);
#531=ORIENTED_EDGE('',*,*,#338,.F.);
#532=ORIENTED_EDGE('',*,*,#381,.T.);
#533=ORIENTED_EDGE('',*,*,#312,.F.);
#534=ORIENTED_EDGE('',*,*,#382,.F.);
#535=ORIENTED_EDGE('',*,*,#345,.F.);
#536=ORIENTED_EDGE('',*,*,#313,.T.);
#537=ORIENTED_EDGE('',*,*,#311,.F.);
#538=ORIENTED_EDGE('',*,*,#299,.F.);
#539=ORIENTED_EDGE('',*,*,#307,.F.);
#540=ORIENTED_EDGE('',*,*,#381,.F.);
#541=ORIENTED_EDGE('',*,*,#337,.F.);
#542=ORIENTED_EDGE('',*,*,#326,.T.);
#543=ORIENTED_EDGE('',*,*,#303,.F.);
#544=ORIENTED_EDGE('',*,*,#335,.F.);
#545=ORIENTED_EDGE('',*,*,#350,.F.);
#546=ORIENTED_EDGE('',*,*,#364,.T.);
#547=ORIENTED_EDGE('',*,*,#365,.F.);
#548=ORIENTED_EDGE('',*,*,#369,.T.);
#549=ORIENTED_EDGE('',*,*,#346,.F.);
#550=ORIENTED_EDGE('',*,*,#382,.T.);
#551=PLANE('',#625);
#552=PLANE('',#626);
#553=PLANE('',#627);
#554=PLANE('',#628);
#555=PLANE('',#629);
#556=PLANE('',#630);
#557=PLANE('',#631);
#558=PLANE('',#632);
#559=PLANE('',#633);
#560=PLANE('',#634);
#561=PLANE('',#635);
#562=PLANE('',#636);
#563=PLANE('',#637);
#564=PLANE('',#638);
#565=PLANE('',#639);
#566=PLANE('',#640);
#567=PLANE('',#641);
#568=PLANE('',#642);
#569=PLANE('',#643);
#570=PLANE('',#644);
#571=PLANE('',#645);
#572=PLANE('',#646);
#573=PLANE('',#647);
#574=PLANE('',#648);
#575=PLANE('',#649);
#576=PLANE('',#650);
#577=PLANE('',#651);
#578=PLANE('',#652);
#579=PLANE('',#653);
#580=PLANE('',#654);
#581=ADVANCED_FACE('',(#15),#551,.T.);
#582=ADVANCED_FACE('',(#16),#552,.T.);
#583=ADVANCED_FACE('',(#17),#553,.T.);
#584=ADVANCED_FACE('',(#18),#554,.T.);
#585=ADVANCED_FACE('',(#19),#555,.T.);
#586=ADVANCED_FACE('',(#20),#556,.T.);
#587=ADVANCED_FACE('',(#21),#557,.T.);
#588=ADVANCED_FACE('',(#22),#558,.T.);
#589=ADVANCED_FACE('',(#23),#559,.T.);
#590=ADVANCED_FACE('',(#24),#560,.T.);
#591=ADVANCED_FACE('',(#25),#561,.F.);
#592=ADVANCED_FACE('',(#26),#562,.T.);
#593=ADVANCED_FACE('',(#27),#563,.T.);
#594=ADVANCED_FACE('',(#28),#564,.T.);
#595=ADVANCED_FACE('',(#29),#565,.T.);
#596=ADVANCED_FACE('',(#30),#566,.T.);
#597=ADVANCED_FACE('',(#31),#567,.T.);
#598=ADVANCED_FACE('',(#32),#568,.T.);
#599=ADVANCED_FACE('',(#33),#569,.T.);
#600=ADVANCED_FACE('',(#34),#570,.T.);
#601=ADVANCED_FACE('',(#35),#571,.T.);
#602=ADVANCED_FACE('',(#36),#572,.T.);
#603=ADVANCED_FACE('',(#37),#573,.T.);
#604=ADVANCED_FACE('',(#38),#574,.T.);
#605=ADVANCED_FACE('',(#39),#575,.T.);
#606=ADVANCED_FACE('',(#40),#576,.T.);
#607=ADVANCED_FACE('',(#41),#577,.T.);
#608=ADVANCED_FACE('',(#42),#578,.T.);
#609=ADVANCED_FACE('',(#43),#579,.T.);
#610=ADVANCED_FACE('',(#44),#580,.T.);
#611=CLOSED_SHELL('',(#581,#582,#583,#584,#585,#586,#587,#588,#589,#590,
#591,#592,#593,#594,#595,#596,#597,#598,#599,#600,#601,#602,#603,#604,#605,
#606,#607,#608,#609,#610));
#612=DERIVED_UNIT_ELEMENT(#614,1.);
#613=DERIVED_UNIT_ELEMENT(#977,-3.);
#614=(
MASS_UNIT()
NAMED_UNIT(*)
SI_UNIT(.KILO.,.GRAM.)
);
#615=DERIVED_UNIT((#612,#613));
#616=MEASURE_REPRESENTATION_ITEM('density measure',
POSITIVE_RATIO_MEASURE(7850.),#615);
#617=PROPERTY_DEFINITION_REPRESENTATION(#622,#619);
#618=PROPERTY_DEFINITION_REPRESENTATION(#623,#620);
#619=REPRESENTATION('material name',(#621),#974);
#620=REPRESENTATION('density',(#616),#974);
#621=DESCRIPTIVE_REPRESENTATION_ITEM('Steel','Steel');
#622=PROPERTY_DEFINITION('material property','material name',#984);
#623=PROPERTY_DEFINITION('material property','density of part',#984);
#624=AXIS2_PLACEMENT_3D('',#801,#655,#656);
#625=AXIS2_PLACEMENT_3D('',#802,#657,#658);
#626=AXIS2_PLACEMENT_3D('',#811,#663,#664);
#627=AXIS2_PLACEMENT_3D('',#820,#669,#670);
#628=AXIS2_PLACEMENT_3D('',#826,#674,#675);
#629=AXIS2_PLACEMENT_3D('',#832,#679,#680);
#630=AXIS2_PLACEMENT_3D('',#854,#692,#693);
#631=AXIS2_PLACEMENT_3D('',#864,#699,#700);
#632=AXIS2_PLACEMENT_3D('',#870,#704,#705);
#633=AXIS2_PLACEMENT_3D('',#872,#707,#708);
#634=AXIS2_PLACEMENT_3D('',#876,#711,#712);
#635=AXIS2_PLACEMENT_3D('',#880,#715,#716);
#636=AXIS2_PLACEMENT_3D('',#905,#731,#732);
#637=AXIS2_PLACEMENT_3D('',#913,#737,#738);
#638=AXIS2_PLACEMENT_3D('',#917,#741,#742);
#639=AXIS2_PLACEMENT_3D('',#921,#745,#746);
#640=AXIS2_PLACEMENT_3D('',#925,#749,#750);
#641=AXIS2_PLACEMENT_3D('',#927,#752,#753);
#642=AXIS2_PLACEMENT_3D('',#928,#754,#755);
#643=AXIS2_PLACEMENT_3D('',#934,#759,#760);
#644=AXIS2_PLACEMENT_3D('',#940,#764,#765);
#645=AXIS2_PLACEMENT_3D('',#942,#767,#768);
#646=AXIS2_PLACEMENT_3D('',#944,#770,#771);
#647=AXIS2_PLACEMENT_3D('',#952,#776,#777);
#648=AXIS2_PLACEMENT_3D('',#956,#780,#781);
#649=AXIS2_PLACEMENT_3D('',#962,#785,#786);
#650=AXIS2_PLACEMENT_3D('',#964,#788,#789);
#651=AXIS2_PLACEMENT_3D('',#966,#791,#792);
#652=AXIS2_PLACEMENT_3D('',#967,#793,#794);
#653=AXIS2_PLACEMENT_3D('',#969,#796,#797);
#654=AXIS2_PLACEMENT_3D('',#971,#799,#800);
#655=DIRECTION('axis',(0.,0.,1.));
#656=DIRECTION('refdir',(1.,0.,0.));
#657=DIRECTION('center_axis',(0.,0.,1.));
#658=DIRECTION('ref_axis',(1.,0.,0.));
#659=DIRECTION('',(0.,1.,0.));
#660=DIRECTION('',(1.,-1.73472347597681E-16,0.));
#661=DIRECTION('',(0.,-1.,0.));
#662=DIRECTION('',(-1.,6.93889390390723E-16,0.));
#663=DIRECTION('center_axis',(0.,0.,1.));
#664=DIRECTION('ref_axis',(1.,0.,0.));
#665=DIRECTION('',(0.,-1.,0.));
#666=DIRECTION('',(1.,0.,0.));
#667=DIRECTION('',(0.,1.,0.));
#668=DIRECTION('',(-1.,-1.46081976924363E-16,0.));
#669=DIRECTION('center_axis',(-4.9065389333868E-16,-0.707106781186548,0.707106781186548));
#670=DIRECTION('ref_axis',(1.,0.,6.93889390390723E-16));
#671=DIRECTION('',(0.,0.707106781186548,0.707106781186548));
#672=DIRECTION('',(0.,-0.707106781186548,-0.707106781186548));
#673=DIRECTION('',(1.,-6.93889390390723E-16,0.));
#674=DIRECTION('center_axis',(1.2266347333467E-16,0.707106781186548,0.707106781186547));
#675=DIRECTION('ref_axis',(1.,0.,-1.73472347597681E-16));
#676=DIRECTION('',(0.,-0.707106781186547,0.707106781186548));
#677=DIRECTION('',(0.,0.707106781186547,-0.707106781186548));
#678=DIRECTION('',(-1.,1.73472347597681E-16,0.));
#679=DIRECTION('center_axis',(-1.,0.,0.));
#680=DIRECTION('ref_axis',(0.,-1.,0.));
#681=DIRECTION('',(0.,0.,1.));
#682=DIRECTION('',(0.,1.,0.));
#683=DIRECTION('',(0.,0.,1.));
#684=DIRECTION('',(0.,-1.,0.));
#685=DIRECTION('',(0.,0.,-1.));
#686=DIRECTION('',(0.,1.,0.));
#687=DIRECTION('',(0.,0.,1.));
#688=DIRECTION('',(0.,-1.,0.));
#689=DIRECTION('',(0.,0.,-1.));
#690=DIRECTION('',(0.,1.,0.));
#691=DIRECTION('',(0.,0.,1.));
#692=DIRECTION('center_axis',(0.,-1.,0.));
#693=DIRECTION('ref_axis',(1.,0.,0.));
#694=DIRECTION('',(-1.,0.,0.));
#695=DIRECTION('',(0.,0.,1.));
#696=DIRECTION('',(0.,0.,1.));
#697=DIRECTION('',(1.,0.,0.));
#698=DIRECTION('',(0.,0.,1.));
#699=DIRECTION('center_axis',(0.,0.,-1.));
#700=DIRECTION('ref_axis',(-1.,0.,0.));
#701=DIRECTION('',(1.,1.46081976924363E-16,0.));
#702=DIRECTION('',(0.,-1.,0.));
#703=DIRECTION('',(0.,1.,0.));
#704=DIRECTION('center_axis',(1.,0.,0.));
#705=DIRECTION('ref_axis',(0.,1.,0.));
#706=DIRECTION('',(0.,0.,-1.));
#707=DIRECTION('center_axis',(-1.,0.,0.));
#708=DIRECTION('ref_axis',(0.,-1.,0.));
#709=DIRECTION('',(0.,-1.,0.));
#710=DIRECTION('',(0.,0.,1.));
#711=DIRECTION('center_axis',(-1.46081976924363E-16,1.,0.));
#712=DIRECTION('ref_axis',(-1.,-1.46081976924363E-16,0.));
#713=DIRECTION('',(0.,0.,1.));
#714=DIRECTION('',(-1.,-1.46081976924363E-16,0.));
#715=DIRECTION('center_axis',(0.,0.,1.));
#716=DIRECTION('ref_axis',(1.,0.,0.));
#717=DIRECTION('',(0.,-1.,0.));
#718=DIRECTION('',(-1.,6.93889390390723E-16,0.));
#719=DIRECTION('',(1.,0.,0.));
#720=DIRECTION('',(0.,1.,0.));
#721=DIRECTION('',(-1.,0.,0.));
#722=DIRECTION('',(1.,0.,0.));
#723=DIRECTION('',(2.4980018054066E-15,1.,0.));
#724=DIRECTION('',(-1.,0.,0.));
#725=DIRECTION('',(1.,-1.73472347597681E-16,0.));
#726=DIRECTION('',(0.,-1.,0.));
#727=DIRECTION('',(-1.,0.,0.));
#728=DIRECTION('',(0.,-1.,0.));
#729=DIRECTION('',(1.,1.46081976924363E-16,0.));
#730=DIRECTION('',(0.,-1.,0.));
#731=DIRECTION('center_axis',(0.,1.,0.));
#732=DIRECTION('ref_axis',(-1.,0.,0.));
#733=DIRECTION('',(0.,0.,-1.));
#734=DIRECTION('',(1.,0.,0.));
#735=DIRECTION('',(0.,0.,1.));
#736=DIRECTION('',(-1.,0.,0.));
#737=DIRECTION('center_axis',(1.,0.,0.));
#738=DIRECTION('ref_axis',(0.,1.,0.));
#739=DIRECTION('',(0.,0.,1.));
#740=DIRECTION('',(0.,-1.,0.));
#741=DIRECTION('center_axis',(0.,0.,-1.));
#742=DIRECTION('ref_axis',(-1.,0.,0.));
#743=DIRECTION('',(-1.,0.,0.));
#744=DIRECTION('',(0.,1.,0.));
#745=DIRECTION('center_axis',(0.,-1.,0.));
#746=DIRECTION('ref_axis',(1.,0.,0.));
#747=DIRECTION('',(1.,0.,0.));
#748=DIRECTION('',(0.,0.,1.));
#749=DIRECTION('center_axis',(-1.,0.,0.));
#750=DIRECTION('ref_axis',(0.,-1.,0.));
#751=DIRECTION('',(0.,-1.,0.));
#752=DIRECTION('center_axis',(0.,0.,1.));
#753=DIRECTION('ref_axis',(1.,0.,0.));
#754=DIRECTION('center_axis',(1.46081976924363E-16,-1.,0.));
#755=DIRECTION('ref_axis',(1.,1.46081976924363E-16,0.));
#756=DIRECTION('',(0.,0.,1.));
#757=DIRECTION('',(-1.,-1.46081976924363E-16,0.));
#758=DIRECTION('',(0.,0.,-1.));
#759=DIRECTION('center_axis',(0.,0.,-1.));
#760=DIRECTION('ref_axis',(-1.,0.,0.));
#761=DIRECTION('',(0.,-1.,0.));
#762=DIRECTION('',(0.,1.,0.));
#763=DIRECTION('',(1.,0.,0.));
#764=DIRECTION('center_axis',(-1.,0.,0.));
#765=DIRECTION('ref_axis',(0.,-1.,0.));
#766=DIRECTION('',(0.,0.,1.));
#767=DIRECTION('center_axis',(0.,1.,0.));
#768=DIRECTION('ref_axis',(-1.,0.,0.));
#769=DIRECTION('',(0.,0.,1.));
#770=DIRECTION('center_axis',(0.,-1.,0.));
#771=DIRECTION('ref_axis',(1.,0.,0.));
#772=DIRECTION('',(1.,0.,0.));
#773=DIRECTION('',(0.,0.,1.));
#774=DIRECTION('',(-1.,0.,0.));
#775=DIRECTION('',(0.,0.,1.));
#776=DIRECTION('center_axis',(0.,0.,1.));
#777=DIRECTION('ref_axis',(1.,0.,0.));
#778=DIRECTION('',(-1.,0.,0.));
#779=DIRECTION('',(0.,-1.,0.));
#780=DIRECTION('center_axis',(0.,0.,-1.));
#781=DIRECTION('ref_axis',(-1.,0.,0.));
#782=DIRECTION('',(1.,0.,0.));
#783=DIRECTION('',(-2.4980018054066E-15,-1.,0.));
#784=DIRECTION('',(0.,1.,0.));
#785=DIRECTION('center_axis',(1.,-2.4980018054066E-15,0.));
#786=DIRECTION('ref_axis',(2.4980018054066E-15,1.,0.));
#787=DIRECTION('',(0.,0.,-1.));
#788=DIRECTION('center_axis',(-1.,0.,0.));
#789=DIRECTION('ref_axis',(0.,-1.,0.));
#790=DIRECTION('',(0.,0.,1.));
#791=DIRECTION('center_axis',(0.,1.,0.));
#792=DIRECTION('ref_axis',(-1.,0.,0.));
#793=DIRECTION('center_axis',(-6.93889390390723E-16,-1.,0.));
#794=DIRECTION('ref_axis',(1.,-6.93889390390723E-16,0.));
#795=DIRECTION('',(0.,0.,1.));
#796=DIRECTION('center_axis',(1.73472347597681E-16,1.,0.));
#797=DIRECTION('ref_axis',(-1.,1.73472347597681E-16,0.));
#798=DIRECTION('',(0.,0.,1.));
#799=DIRECTION('center_axis',(1.,0.,0.));
#800=DIRECTION('ref_axis',(0.,1.,0.));
#801=CARTESIAN_POINT('',(0.,0.,0.));
#802=CARTESIAN_POINT('Origin',(1.10039354295211E-7,-1.11022302462516E-15,
10.2));
#803=CARTESIAN_POINT('',(6.40000018156494,-3.85,10.2));
#804=CARTESIAN_POINT('',(6.4,3.85,10.2));
#805=CARTESIAN_POINT('',(6.4,5.25,10.2));
#806=CARTESIAN_POINT('',(-6.4,3.85,10.2));
#807=CARTESIAN_POINT('',(3.20000005501968,3.85,10.2));
#808=CARTESIAN_POINT('',(-6.4,-3.84999999999999,10.2));
#809=CARTESIAN_POINT('',(-6.4,-5.24999999999999,10.2));
#810=CARTESIAN_POINT('',(-3.19999994498032,-3.85,10.2));
#811=CARTESIAN_POINT('Origin',(5.55,-3.2,1.));
#812=CARTESIAN_POINT('',(6.4,-2.2,1.));
#813=CARTESIAN_POINT('',(6.40000022007871,-4.2,1.));
#814=CARTESIAN_POINT('',(6.4,-4.225,1.));
#815=CARTESIAN_POINT('',(6.6,-4.19999999999998,1.));
#816=CARTESIAN_POINT('',(4.5,-4.2,1.));
#817=CARTESIAN_POINT('',(6.6,-2.2,1.));
#818=CARTESIAN_POINT('',(6.6,-2.2,1.));
#819=CARTESIAN_POINT('',(6.4,-2.2,1.));
#820=CARTESIAN_POINT('Origin',(-3.19999994498032,-4.55,9.5));
#821=CARTESIAN_POINT('',(6.4,-5.25,8.8));
#822=CARTESIAN_POINT('',(6.4,-7.1,6.95));
#823=CARTESIAN_POINT('',(-6.4,-5.24999999999999,8.8));
#824=CARTESIAN_POINT('',(-6.4,-4.475,9.575));
#825=CARTESIAN_POINT('',(-3.19999994498032,-5.25,8.8));
#826=CARTESIAN_POINT('Origin',(3.20000005501968,4.55,9.5));
#827=CARTESIAN_POINT('',(-6.4,5.25,8.8));
#828=CARTESIAN_POINT('',(-6.4,7.1,6.95));
#829=CARTESIAN_POINT('',(6.4,5.25,8.8));
#830=CARTESIAN_POINT('',(6.4,5.2375,8.8125));
#831=CARTESIAN_POINT('',(3.20000005501968,5.25,8.8));
#832=CARTESIAN_POINT('Origin',(-6.4,5.25,0.));
#833=CARTESIAN_POINT('',(-6.4,5.25,0.));
#834=CARTESIAN_POINT('',(-6.4,5.25,0.));
#835=CARTESIAN_POINT('',(-6.4,4.2,0.));
#836=CARTESIAN_POINT('',(-6.4,-5.24999999999999,0.));
#837=CARTESIAN_POINT('',(-6.4,4.2,1.));
#838=CARTESIAN_POINT('',(-6.4,4.2,0.));
#839=CARTESIAN_POINT('',(-6.4,2.2,1.));
#840=CARTESIAN_POINT('',(-6.4,4.225,1.));
#841=CARTESIAN_POINT('',(-6.4,2.2,0.));
#842=CARTESIAN_POINT('',(-6.4,2.2,0.));
#843=CARTESIAN_POINT('',(-6.4,-2.2,0.));
#844=CARTESIAN_POINT('',(-6.4,-5.24999999999999,0.));
#845=CARTESIAN_POINT('',(-6.4,-2.2,1.));
#846=CARTESIAN_POINT('',(-6.4,-2.2,0.));
#847=CARTESIAN_POINT('',(-6.4,-4.2,1.));
#848=CARTESIAN_POINT('',(-6.4,1.025,1.));
#849=CARTESIAN_POINT('',(-6.4,-4.2,0.));
#850=CARTESIAN_POINT('',(-6.4,-4.2,0.));
#851=CARTESIAN_POINT('',(-6.4,-5.24999999999999,0.));
#852=CARTESIAN_POINT('',(-6.4,-5.24999999999999,0.));
#853=CARTESIAN_POINT('',(-6.4,-5.24999999999999,0.));
#854=CARTESIAN_POINT('Origin',(4.5,-4.2,0.));
#855=CARTESIAN_POINT('',(6.6,-4.19999999999998,-0.1));
#856=CARTESIAN_POINT('',(4.5,-4.2,-0.1));
#857=CARTESIAN_POINT('',(4.5,-4.2,-0.1));
#858=CARTESIAN_POINT('',(6.6,-4.19999999999998,0.));
#859=CARTESIAN_POINT('',(6.40000022007871,-4.19999999999998,0.));
#860=CARTESIAN_POINT('',(6.40000022007871,-4.19999999999998,0.));
#861=CARTESIAN_POINT('',(4.5,-4.2,0.));
#862=CARTESIAN_POINT('',(2.25000005501968,-4.2,0.));
#863=CARTESIAN_POINT('',(4.5,-4.2,0.));
#864=CARTESIAN_POINT('Origin',(5.55,-3.2,-0.1));
#865=CARTESIAN_POINT('',(4.5,-2.2,-0.1));
#866=CARTESIAN_POINT('',(6.6,-2.2,-0.1));
#867=CARTESIAN_POINT('',(6.4,-2.2,-0.1));
#868=CARTESIAN_POINT('',(6.6,-2.2,-0.1));
#869=CARTESIAN_POINT('',(4.5,-2.2,-0.1));
#870=CARTESIAN_POINT('Origin',(6.6,-4.19999999999998,0.));
#871=CARTESIAN_POINT('',(6.6,-2.2,0.));
#872=CARTESIAN_POINT('Origin',(4.5,-2.2,0.));
#873=CARTESIAN_POINT('',(4.5,-2.2,0.));
#874=CARTESIAN_POINT('',(4.5,-1.1,0.));
#875=CARTESIAN_POINT('',(4.5,-2.2,0.));
#876=CARTESIAN_POINT('Origin',(6.6,-2.2,0.));
#877=CARTESIAN_POINT('',(6.4,-2.2,0.));
#878=CARTESIAN_POINT('',(6.4,-2.2,0.));
#879=CARTESIAN_POINT('',(3.30000005501968,-2.2,0.));
#880=CARTESIAN_POINT('Origin',(1.10039354295211E-7,-1.11022302462516E-15,
0.));
#881=CARTESIAN_POINT('',(6.4,-5.25,0.));
#882=CARTESIAN_POINT('',(6.4,5.25,0.));
#883=CARTESIAN_POINT('',(6.4,-5.25,0.));
#884=CARTESIAN_POINT('',(-4.5,-4.2,0.));
#885=CARTESIAN_POINT('',(-3.29999994498032,-4.2,0.));
#886=CARTESIAN_POINT('',(-4.5,-2.2,0.));
#887=CARTESIAN_POINT('',(-4.5,-2.1,0.));
#888=CARTESIAN_POINT('',(-2.24999994498032,-2.2,0.));
#889=CARTESIAN_POINT('',(-4.5,2.2,0.));
#890=CARTESIAN_POINT('',(-3.29999994498032,2.2,0.));
#891=CARTESIAN_POINT('',(-4.5,4.2,0.));
#892=CARTESIAN_POINT('',(-4.5,1.1,0.));
#893=CARTESIAN_POINT('',(-2.24999994498032,4.2,0.));
#894=CARTESIAN_POINT('',(6.4,5.25,0.));
#895=CARTESIAN_POINT('',(-6.4,5.25,0.));
#896=CARTESIAN_POINT('',(6.4,4.2,0.));
#897=CARTESIAN_POINT('',(6.4,5.25,0.));
#898=CARTESIAN_POINT('',(4.5,4.2,0.));
#899=CARTESIAN_POINT('',(3.20000005501968,4.2,0.));
#900=CARTESIAN_POINT('',(4.5,2.2,0.));
#901=CARTESIAN_POINT('',(4.5,2.1,0.));
#902=CARTESIAN_POINT('',(6.4,2.2,0.));
#903=CARTESIAN_POINT('',(2.25000005501968,2.2,0.));
#904=CARTESIAN_POINT('',(6.4,5.25,0.));
#905=CARTESIAN_POINT('Origin',(-4.5,-2.2,0.));
#906=CARTESIAN_POINT('',(-4.5,-2.2,-0.1));
#907=CARTESIAN_POINT('',(-4.5,-2.2,0.));
#908=CARTESIAN_POINT('',(-6.6,-2.2,-0.1));
#909=CARTESIAN_POINT('',(-6.4,-2.2,-0.1));
#910=CARTESIAN_POINT('',(-6.6,-2.2,1.));
#911=CARTESIAN_POINT('',(-6.6,-2.2,0.));
#912=CARTESIAN_POINT('',(-6.4,-2.2,1.));
#913=CARTESIAN_POINT('Origin',(-4.5,-4.2,0.));
#914=CARTESIAN_POINT('',(-4.5,-4.2,-0.1));
#915=CARTESIAN_POINT('',(-4.5,-4.2,0.));
#916=CARTESIAN_POINT('',(-4.5,-2.2,-0.1));
#917=CARTESIAN_POINT('Origin',(-5.55,-3.2,-0.1));
#918=CARTESIAN_POINT('',(-6.6,-4.2,-0.1));
#919=CARTESIAN_POINT('',(-6.6,-4.2,-0.1));
#920=CARTESIAN_POINT('',(-6.6,-2.2,-0.1));
#921=CARTESIAN_POINT('Origin',(-6.6,-4.2,0.));
#922=CARTESIAN_POINT('',(-6.6,-4.2,1.));
#923=CARTESIAN_POINT('',(-6.6,-4.2,1.));
#924=CARTESIAN_POINT('',(-6.6,-4.2,0.));
#925=CARTESIAN_POINT('Origin',(-6.6,-2.2,0.));
#926=CARTESIAN_POINT('',(-6.6,-2.2,1.));
#927=CARTESIAN_POINT('Origin',(-5.55,-3.2,1.));
#928=CARTESIAN_POINT('Origin',(4.5,2.2,0.));
#929=CARTESIAN_POINT('',(4.5,2.2,-0.1));
#930=CARTESIAN_POINT('',(4.5,2.2,0.));
#931=CARTESIAN_POINT('',(6.4,2.2,-0.1));
#932=CARTESIAN_POINT('',(4.5,2.2,-0.1));
#933=CARTESIAN_POINT('',(6.4,2.2,0.));
#934=CARTESIAN_POINT('Origin',(5.45,3.2,-0.1));
#935=CARTESIAN_POINT('',(6.4,4.2,-0.1));
#936=CARTESIAN_POINT('',(6.4,2.2,-0.1));
#937=CARTESIAN_POINT('',(4.5,4.2,-0.1));
#938=CARTESIAN_POINT('',(4.5,4.2,-0.1));
#939=CARTESIAN_POINT('',(6.4,4.2,-0.1));
#940=CARTESIAN_POINT('Origin',(4.5,4.2,0.));
#941=CARTESIAN_POINT('',(4.5,4.2,0.));
#942=CARTESIAN_POINT('Origin',(6.4,4.2,0.));
#943=CARTESIAN_POINT('',(6.4,4.2,0.));
#944=CARTESIAN_POINT('Origin',(-6.6,2.2,0.));
#945=CARTESIAN_POINT('',(-6.6,2.2,1.));
#946=CARTESIAN_POINT('',(-6.6,2.2,1.));
#947=CARTESIAN_POINT('',(-6.6,2.2,-0.1));
#948=CARTESIAN_POINT('',(-6.6,2.2,0.));
#949=CARTESIAN_POINT('',(-4.5,2.2,-0.1));
#950=CARTESIAN_POINT('',(-6.6,2.2,-0.1));
#951=CARTESIAN_POINT('',(-4.5,2.2,0.));
#952=CARTESIAN_POINT('Origin',(-5.55,3.2,1.));
#953=CARTESIAN_POINT('',(-6.6,4.2,1.));
#954=CARTESIAN_POINT('',(-6.4,4.2,1.));
#955=CARTESIAN_POINT('',(-6.6,4.2,1.));
#956=CARTESIAN_POINT('Origin',(-5.55,3.2,-0.1));
#957=CARTESIAN_POINT('',(-6.6,4.2,-0.1));
#958=CARTESIAN_POINT('',(-4.5,4.2,-0.1));
#959=CARTESIAN_POINT('',(-6.4,4.2,-0.1));
#960=CARTESIAN_POINT('',(-4.5,4.2,-0.1));
#961=CARTESIAN_POINT('',(-6.6,4.2,-0.1));
#962=CARTESIAN_POINT('Origin',(-4.5,2.2,0.));
#963=CARTESIAN_POINT('',(-4.5,4.2,0.));
#964=CARTESIAN_POINT('Origin',(-6.6,4.2,0.));
#965=CARTESIAN_POINT('',(-6.6,4.2,0.));
#966=CARTESIAN_POINT('Origin',(-4.5,4.2,0.));
#967=CARTESIAN_POINT('Origin',(-6.4,-5.24999999999999,0.));
#968=CARTESIAN_POINT('',(6.4,-5.25,0.));
#969=CARTESIAN_POINT('Origin',(6.4,5.25,0.));
#970=CARTESIAN_POINT('',(6.4,5.25,0.));
#971=CARTESIAN_POINT('Origin',(6.4,-5.25,0.));
#972=UNCERTAINTY_MEASURE_WITH_UNIT(LENGTH_MEASURE(0.01),#976,
'DISTANCE_ACCURACY_VALUE',
'Maximum model space distance between geometric entities at asserted c
onnectivities');
#973=UNCERTAINTY_MEASURE_WITH_UNIT(LENGTH_MEASURE(0.01),#976,
'DISTANCE_ACCURACY_VALUE',
'Maximum model space distance between geometric entities at asserted c
onnectivities');
#974=(
GEOMETRIC_REPRESENTATION_CONTEXT(3)
GLOBAL_UNCERTAINTY_ASSIGNED_CONTEXT((#972))
GLOBAL_UNIT_ASSIGNED_CONTEXT((#976,#978,#979))
REPRESENTATION_CONTEXT('','3D')
);
#975=(
GEOMETRIC_REPRESENTATION_CONTEXT(3)
GLOBAL_UNCERTAINTY_ASSIGNED_CONTEXT((#973))
GLOBAL_UNIT_ASSIGNED_CONTEXT((#976,#978,#979))
REPRESENTATION_CONTEXT('','3D')
);
#976=(
LENGTH_UNIT()
NAMED_UNIT(*)
SI_UNIT(.MILLI.,.METRE.)
);
#977=(
LENGTH_UNIT()
NAMED_UNIT(*)
SI_UNIT($,.METRE.)
);
#978=(
NAMED_UNIT(*)
PLANE_ANGLE_UNIT()
SI_UNIT($,.RADIAN.)
);
#979=(
NAMED_UNIT(*)
SI_UNIT($,.STERADIAN.)
SOLID_ANGLE_UNIT()
);
#980=SHAPE_DEFINITION_REPRESENTATION(#981,#982);
#981=PRODUCT_DEFINITION_SHAPE('',$,#984);
#982=SHAPE_REPRESENTATION('',(#624),#974);
#983=PRODUCT_DEFINITION_CONTEXT('part definition',#988,'design');
#984=PRODUCT_DEFINITION('Sumida C2DEP1010NP-100MC-120',
'Sumida C2DEP1010NP-100MC-120 v1',#985,#983);
#985=PRODUCT_DEFINITION_FORMATION('',$,#990);
#986=PRODUCT_RELATED_PRODUCT_CATEGORY('Sumida C2DEP1010NP-100MC-120 v1',
'Sumida C2DEP1010NP-100MC-120 v1',(#990));
#987=APPLICATION_PROTOCOL_DEFINITION('international standard',
'automotive_design',2009,#988);
#988=APPLICATION_CONTEXT(
'Core Data for Automotive Mechanical Design Process');
#989=PRODUCT_CONTEXT('part definition',#988,'mechanical');
#990=PRODUCT('Sumida C2DEP1010NP-100MC-120',
'Sumida C2DEP1010NP-100MC-120 v1',$,(#989));
#991=PRESENTATION_STYLE_ASSIGNMENT((#992));
#992=SURFACE_STYLE_USAGE(.BOTH.,#993);
#993=SURFACE_SIDE_STYLE('',(#994));
#994=SURFACE_STYLE_FILL_AREA(#995);
#995=FILL_AREA_STYLE('Steel - Satin',(#996));
#996=FILL_AREA_STYLE_COLOUR('Steel - Satin',#997);
#997=COLOUR_RGB('Steel - Satin',0.627450980392157,0.627450980392157,0.627450980392157);
ENDSEC;
END-ISO-10303-21;
